<?xml version="1.0" encoding="UTF-8"?>
<!DOCTYPE svg PUBLIC "-//W3C//DTD SVG 1.1//EN" "http://www.w3.org/Graphics/SVG/1.1/DTD/svg11.dtd">
<svg xmlns="http://www.w3.org/2000/svg" version="1.1" width="500px" height="500px" style="shape-rendering:geometricPrecision; text-rendering:geometricPrecision; image-rendering:optimizeQuality; fill-rule:evenodd; clip-rule:evenodd" xmlns:xlink="http://www.w3.org/1999/xlink">
<g><path style="opacity:1" fill="#222d2e" d="M 287.5,145.5 C 287.5,147.167 287.5,148.833 287.5,150.5C 286.719,148.372 285.719,148.205 284.5,150C 285.328,150.915 286.328,151.581 287.5,152C 286.944,152.383 286.611,152.883 286.5,153.5C 285.127,153.657 283.793,153.49 282.5,153C 283.056,152.617 283.389,152.117 283.5,151.5C 282.811,150.293 282.645,148.959 283,147.5C 281.75,148.573 280.416,148.573 279,147.5C 277.238,147.944 277.405,148.444 279.5,149C 275.833,151 272.167,151 268.5,149C 270.715,147.956 273.048,147.29 275.5,147C 272.083,146.975 268.75,146.808 265.5,146.5C 272.803,145.503 280.137,145.169 287.5,145.5 Z"/></g>
<g><path style="opacity:0.999" fill="#2f373a" d="M 258.5,146.5 C 258.082,147.222 257.416,147.722 256.5,148C 258.107,149.049 258.773,150.549 258.5,152.5C 260.592,152.439 262.092,151.439 263,149.5C 264.135,151.37 264.968,153.37 265.5,155.5C 262.935,157.618 261.102,160.285 260,163.5C 258.701,163.034 257.201,163.034 255.5,163.5C 256.274,160.619 257.607,157.952 259.5,155.5C 257.575,153.733 256.242,151.566 255.5,149C 253.575,149.135 251.575,149.302 249.5,149.5C 252.084,147.528 255.084,146.528 258.5,146.5 Z"/></g>
<g><path style="opacity:1" fill="#2f393a" d="M 287.5,145.5 C 280.137,145.169 272.803,145.503 265.5,146.5C 268.75,146.808 272.083,146.975 275.5,147C 273.048,147.29 270.715,147.956 268.5,149C 272.167,151 275.833,151 279.5,149C 277.405,148.444 277.238,147.944 279,147.5C 280.416,148.573 281.75,148.573 283,147.5C 282.645,148.959 282.811,150.293 283.5,151.5C 281.7,152.473 279.866,153.473 278,154.5C 276.775,150.82 275.942,151.153 275.5,155.5C 274.503,155.47 273.836,155.97 273.5,157C 274.291,158.101 274.291,158.934 273.5,159.5C 272.824,158.398 272.158,157.398 271.5,156.5C 269.792,154.488 267.792,154.154 265.5,155.5C 264.968,153.37 264.135,151.37 263,149.5C 262.092,151.439 260.592,152.439 258.5,152.5C 258.773,150.549 258.107,149.049 256.5,148C 257.416,147.722 258.082,147.222 258.5,146.5C 268.224,144.337 277.891,144.004 287.5,145.5 Z"/></g>
<g><path style="opacity:0.81" fill="#65696a" d="M 249.5,149.5 C 249.137,151.777 248.137,152.444 246.5,151.5C 244.55,152.372 242.55,153.039 240.5,153.5C 243.053,151.416 246.053,150.083 249.5,149.5 Z"/></g>
<g><path style="opacity:0.989" fill="#232d2f" d="M 255.5,163.5 C 255.206,166.646 253.539,167.813 250.5,167C 251.833,165.333 251.833,163.667 250.5,162C 251.494,160.671 252.494,159.338 253.5,158C 252.645,156.549 252.478,155.049 253,153.5C 251.98,155.929 250.814,158.263 249.5,160.5C 249.167,160.5 248.833,160.5 248.5,160.5C 247.448,160.649 246.448,160.483 245.5,160C 249.279,158.89 249.446,157.39 246,155.5C 245.692,156.308 245.192,156.975 244.5,157.5C 242.338,157.154 240.338,157.154 238.5,157.5C 238.557,156.391 238.89,155.391 239.5,154.5C 239.5,153.833 239.833,153.5 240.5,153.5C 242.55,153.039 244.55,152.372 246.5,151.5C 248.137,152.444 249.137,151.777 249.5,149.5C 251.575,149.302 253.575,149.135 255.5,149C 256.242,151.566 257.575,153.733 259.5,155.5C 257.607,157.952 256.274,160.619 255.5,163.5 Z"/></g>
<g><path style="opacity:1" fill="#242b2e" d="M 283.5,151.5 C 283.389,152.117 283.056,152.617 282.5,153C 283.793,153.49 285.127,153.657 286.5,153.5C 287.309,155.028 287.976,156.694 288.5,158.5C 286.833,157.833 285.167,157.167 283.5,156.5C 282.791,155.596 281.791,155.263 280.5,155.5C 280.174,164.017 280.507,172.35 281.5,180.5C 282.552,182.256 284.219,182.923 286.5,182.5C 290.449,182.693 290.449,183.193 286.5,184C 284.5,184.667 282.5,184.667 280.5,184C 279.495,182.493 278.162,181.327 276.5,180.5C 278.464,176.814 278.797,173.147 277.5,169.5C 277.604,164.694 276.937,160.028 275.5,155.5C 275.942,151.153 276.775,150.82 278,154.5C 279.866,153.473 281.7,152.473 283.5,151.5 Z"/></g>
<g><path style="opacity:0.998" fill="#242f30" d="M 287.5,150.5 C 291.946,150.883 296.613,151.717 301.5,153C 296.492,153.869 296.825,154.536 302.5,155C 300.616,155.216 298.949,155.883 297.5,157C 299.763,159.09 301.763,161.256 303.5,163.5C 303.5,163.833 303.5,164.167 303.5,164.5C 303.737,168.273 303.237,171.94 302,175.5C 299.832,174.371 299.332,172.871 300.5,171C 299.809,169.933 299.309,168.766 299,167.5C 298.667,168.167 298.333,168.833 298,169.5C 293.96,166.007 290.793,162.34 288.5,158.5C 287.976,156.694 287.309,155.028 286.5,153.5C 286.611,152.883 286.944,152.383 287.5,152C 286.328,151.581 285.328,150.915 284.5,150C 285.719,148.205 286.719,148.372 287.5,150.5 Z"/></g>
<g><path style="opacity:0.192" fill="#8c8f91" d="M 236.5,155.5 C 235.461,157.531 233.795,158.864 231.5,159.5C 232.579,157.457 234.246,156.124 236.5,155.5 Z"/></g>
<g><path style="opacity:1" fill="#323b3d" d="M 287.5,145.5 C 301.304,147.075 313.304,152.408 323.5,161.5C 320.382,161.787 317.382,161.287 314.5,160C 316.878,160.974 316.544,161.641 313.5,162C 314.337,163.011 314.67,164.178 314.5,165.5C 313.833,165.5 313.167,165.5 312.5,165.5C 309.622,164.63 306.955,163.297 304.5,161.5C 303.702,161.957 303.369,162.624 303.5,163.5C 301.763,161.256 299.763,159.09 297.5,157C 298.949,155.883 300.616,155.216 302.5,155C 296.825,154.536 296.492,153.869 301.5,153C 296.613,151.717 291.946,150.883 287.5,150.5C 287.5,148.833 287.5,147.167 287.5,145.5 Z"/></g>
<g><path style="opacity:1" fill="#273134" d="M 275.5,155.5 C 276.937,160.028 277.604,164.694 277.5,169.5C 278.575,173.938 276.908,175.938 272.5,175.5C 272.194,178.385 272.527,181.052 273.5,183.5C 272.855,184.812 271.855,185.812 270.5,186.5C 267.519,185.341 264.519,184.341 261.5,183.5C 262.919,182.549 264.585,182.216 266.5,182.5C 268.167,182.5 269.833,182.5 271.5,182.5C 270.989,173.842 270.656,165.175 270.5,156.5C 270.833,156.5 271.167,156.5 271.5,156.5C 272.158,157.398 272.824,158.398 273.5,159.5C 274.291,158.934 274.291,158.101 273.5,157C 273.836,155.97 274.503,155.47 275.5,155.5 Z"/></g>
<g><path style="opacity:1" fill="#2e393a" d="M 248.5,160.5 C 244.899,162.977 241.233,165.477 237.5,168C 238.056,168.383 238.389,168.883 238.5,169.5C 237.078,169.291 235.745,168.791 234.5,168C 235.833,167.333 235.833,166.667 234.5,166C 235.623,164.956 236.956,164.29 238.5,164C 236.024,161.863 236.024,159.697 238.5,157.5C 240.338,157.154 242.338,157.154 244.5,157.5C 245.192,156.975 245.692,156.308 246,155.5C 249.446,157.39 249.279,158.89 245.5,160C 246.448,160.483 247.448,160.649 248.5,160.5 Z"/></g>
<g><path style="opacity:0.302" fill="#98959b" d="M 231.5,159.5 C 230.167,161.5 228.5,163.167 226.5,164.5C 227.167,161.833 228.833,160.167 231.5,159.5 Z"/></g>
<g><path style="opacity:1" fill="#2a3234" d="M 323.5,161.5 C 323.539,162.583 323.873,163.583 324.5,164.5C 326.784,165.458 328.784,166.792 330.5,168.5C 334.99,172.326 338.323,176.993 340.5,182.5C 339.064,182.245 337.564,181.912 336,181.5C 336.103,176.794 334.269,173.127 330.5,170.5C 328.852,169.19 327.186,167.857 325.5,166.5C 323.958,167.747 322.458,167.747 321,166.5C 318.963,168.706 316.797,170.706 314.5,172.5C 313.761,172.631 313.094,172.464 312.5,172C 314.213,170.622 315.547,168.955 316.5,167C 315.584,166.722 314.918,166.222 314.5,165.5C 314.67,164.178 314.337,163.011 313.5,162C 316.544,161.641 316.878,160.974 314.5,160C 317.382,161.287 320.382,161.787 323.5,161.5 Z"/></g>
<g><path style="opacity:0.729" fill="#686a6e" d="M 323.5,161.5 C 325.01,162.836 326.677,164.003 328.5,165C 329.823,165.816 330.489,166.983 330.5,168.5C 328.784,166.792 326.784,165.458 324.5,164.5C 323.873,163.583 323.539,162.583 323.5,161.5 Z"/></g>
<g><path style="opacity:1" fill="#252e30" d="M 239.5,154.5 C 238.89,155.391 238.557,156.391 238.5,157.5C 236.024,159.697 236.024,161.863 238.5,164C 236.956,164.29 235.623,164.956 234.5,166C 235.833,166.667 235.833,167.333 234.5,168C 235.745,168.791 237.078,169.291 238.5,169.5C 238.719,170.675 238.386,171.675 237.5,172.5C 237.167,171.833 236.833,171.167 236.5,170.5C 235.682,173.107 235.182,175.774 235,178.5C 234.329,177.748 233.496,177.414 232.5,177.5C 232.662,175.473 232.495,173.473 232,171.5C 231.228,170.151 230.061,169.318 228.5,169C 232.958,168.139 233.291,166.972 229.5,165.5C 227.583,166.903 226.583,166.57 226.5,164.5C 228.5,163.167 230.167,161.5 231.5,159.5C 233.795,158.864 235.461,157.531 236.5,155.5C 237.391,154.89 238.391,154.557 239.5,154.5 Z"/></g>
<g><path style="opacity:1" fill="#393e41" d="M 255.5,163.5 C 257.201,163.034 258.701,163.034 260,163.5C 261.102,160.285 262.935,157.618 265.5,155.5C 267.792,154.154 269.792,154.488 271.5,156.5C 271.167,156.5 270.833,156.5 270.5,156.5C 267.936,157.866 265.436,159.533 263,161.5C 260.07,165.526 257.237,169.526 254.5,173.5C 256.069,167.228 255.069,166.894 251.5,172.5C 250.664,170.06 248.997,168.727 246.5,168.5C 246.5,168.167 246.5,167.833 246.5,167.5C 247.989,165.355 248.989,163.022 249.5,160.5C 250.814,158.263 251.98,155.929 253,153.5C 252.478,155.049 252.645,156.549 253.5,158C 252.494,159.338 251.494,160.671 250.5,162C 251.833,163.667 251.833,165.333 250.5,167C 253.539,167.813 255.206,166.646 255.5,163.5 Z"/></g>
<g><path style="opacity:1" fill="#2e3738" d="M 226.5,164.5 C 226.583,166.57 227.583,166.903 229.5,165.5C 233.291,166.972 232.958,168.139 228.5,169C 230.061,169.318 231.228,170.151 232,171.5C 232.495,173.473 232.662,175.473 232.5,177.5C 231.399,176.2 230.066,175.7 228.5,176C 226.97,178.352 225.303,180.519 223.5,182.5C 224.807,180.848 224.807,179.182 223.5,177.5C 224.01,175.912 225.01,174.745 226.5,174C 224.541,171.684 224.541,169.684 226.5,168C 225.436,166.489 224.103,166.323 222.5,167.5C 223.262,165.738 224.596,164.738 226.5,164.5 Z"/></g>
<g><path style="opacity:1" fill="#253031" d="M 330.5,170.5 C 330.414,171.496 330.748,172.329 331.5,173C 329.314,173.604 329.148,174.77 331,176.5C 334.06,175.398 334.893,176.398 333.5,179.5C 332.15,179.432 330.816,179.432 329.5,179.5C 329.089,178.738 328.923,177.738 329,176.5C 328.667,176.833 328.333,177.167 328,177.5C 327.292,176.619 326.458,175.953 325.5,175.5C 323.712,174.378 321.712,174.211 319.5,175C 318.638,177.734 317.805,177.901 317,175.5C 316.667,176.5 316.333,177.5 316,178.5C 315.536,177.906 315.369,177.239 315.5,176.5C 315.768,174.901 315.434,173.568 314.5,172.5C 316.797,170.706 318.963,168.706 321,166.5C 322.458,167.747 323.958,167.747 325.5,166.5C 327.186,167.857 328.852,169.19 330.5,170.5 Z"/></g>
<g><path style="opacity:0.129" fill="#565a5d" d="M 283.5,156.5 C 281.533,164.097 280.866,172.097 281.5,180.5C 280.507,172.35 280.174,164.017 280.5,155.5C 281.791,155.263 282.791,155.596 283.5,156.5 Z"/></g>
<g><path style="opacity:0.031" fill="#d8d8d8" d="M 246.5,167.5 C 246.5,167.833 246.5,168.167 246.5,168.5C 246.573,170.027 245.906,171.027 244.5,171.5C 244.66,169.847 245.326,168.514 246.5,167.5 Z"/></g>
<g><path style="opacity:1" fill="#373e42" d="M 283.5,156.5 C 285.167,157.167 286.833,157.833 288.5,158.5C 290.793,162.34 293.96,166.007 298,169.5C 298.333,168.833 298.667,168.167 299,167.5C 299.309,168.766 299.809,169.933 300.5,171C 299.332,172.871 299.832,174.371 302,175.5C 303.237,171.94 303.737,168.273 303.5,164.5C 305.916,166.99 307.582,169.99 308.5,173.5C 310.65,171.851 312.65,170.018 314.5,168C 313.619,167.292 312.953,166.458 312.5,165.5C 313.167,165.5 313.833,165.5 314.5,165.5C 314.918,166.222 315.584,166.722 316.5,167C 315.547,168.955 314.213,170.622 312.5,172C 313.094,172.464 313.761,172.631 314.5,172.5C 315.434,173.568 315.768,174.901 315.5,176.5C 312.167,176.5 308.833,176.5 305.5,176.5C 304.5,176.5 303.5,176.5 302.5,176.5C 302.719,177.675 302.386,178.675 301.5,179.5C 301.693,178.312 301.193,176.978 300,175.5C 299.768,176.737 299.268,177.737 298.5,178.5C 295.845,169.522 290.845,162.188 283.5,156.5 Z"/></g>
<g><path style="opacity:1" fill="#383d41" d="M 222.5,168.5 C 223.764,170.772 223.598,173.105 222,175.5C 220.159,178.591 217.493,180.591 214,181.5C 213.51,182.793 213.343,184.127 213.5,185.5C 212.041,185.433 210.708,185.766 209.5,186.5C 211.388,182.394 213.554,178.394 216,174.5C 217.535,171.706 219.702,169.706 222.5,168.5 Z"/></g>
<g><path style="opacity:1" fill="#2e3739" d="M 246.5,168.5 C 248.997,168.727 250.664,170.06 251.5,172.5C 255.069,166.894 256.069,167.228 254.5,173.5C 254.714,175.144 254.38,176.644 253.5,178C 257.846,179.836 262.179,181.336 266.5,182.5C 264.585,182.216 262.919,182.549 261.5,183.5C 259.727,184.314 259.227,185.648 260,187.5C 261.492,188.92 262.992,190.254 264.5,191.5C 261.391,191.736 258.391,191.403 255.5,190.5C 254.713,188.896 253.38,188.229 251.5,188.5C 249.94,190.156 248.94,192.156 248.5,194.5C 248.663,192.143 248.497,189.81 248,187.5C 246.624,190.053 245.457,192.72 244.5,195.5C 245.228,197.155 245.395,198.821 245,200.5C 243.954,199.228 243.454,197.728 243.5,196C 243.779,193.657 244.112,191.657 244.5,190C 242.893,190.019 241.226,190.185 239.5,190.5C 239.59,193.152 238.924,195.485 237.5,197.5C 237.719,193.2 238.719,189.2 240.5,185.5C 240.343,186.873 240.51,188.207 241,189.5C 242,187.5 243,185.5 244,183.5C 244.414,183.957 244.914,184.291 245.5,184.5C 246.354,183.478 247.354,182.645 248.5,182C 247.061,181.009 246.061,179.676 245.5,178C 246.167,177.667 246.833,177.333 247.5,177C 246.186,176.015 245.186,174.848 244.5,173.5C 244.5,172.833 244.5,172.167 244.5,171.5C 245.906,171.027 246.573,170.027 246.5,168.5 Z"/></g>
<g><path style="opacity:1" fill="#373f41" d="M 325.5,175.5 C 325.5,176.5 325.5,177.5 325.5,178.5C 324.21,177.942 323.377,176.942 323,175.5C 319.844,178.515 316.344,180.848 312.5,182.5C 312.5,184.5 312.5,186.5 312.5,188.5C 311.71,187.391 311.21,186.058 311,184.5C 310.195,186.901 309.362,186.734 308.5,184C 309.423,181.959 309.756,179.792 309.5,177.5C 307.901,177.768 306.568,177.434 305.5,176.5C 308.833,176.5 312.167,176.5 315.5,176.5C 315.369,177.239 315.536,177.906 316,178.5C 316.333,177.5 316.667,176.5 317,175.5C 317.805,177.901 318.638,177.734 319.5,175C 321.712,174.211 323.712,174.378 325.5,175.5 Z"/></g>
<g><path style="opacity:0.998" fill="#293334" d="M 305.5,176.5 C 306.568,177.434 307.901,177.768 309.5,177.5C 309.756,179.792 309.423,181.959 308.5,184C 309.362,186.734 310.195,186.901 311,184.5C 311.21,186.058 311.71,187.391 312.5,188.5C 313.434,189.568 313.768,190.901 313.5,192.5C 310.662,194.559 308.162,193.892 306,190.5C 305.667,190.833 305.333,191.167 305,191.5C 304.667,190.5 304.333,189.5 304,188.5C 303.505,190.473 303.338,192.473 303.5,194.5C 303.06,192.156 302.06,190.156 300.5,188.5C 298.784,188.629 297.117,188.962 295.5,189.5C 294.761,189.631 294.094,189.464 293.5,189C 294.623,187.956 295.956,187.29 297.5,187C 295.754,186.529 294.087,185.862 292.5,185C 294.912,182.965 294.245,181.965 290.5,182C 292.218,181.654 293.885,181.154 295.5,180.5C 297.137,181.444 298.137,180.777 298.5,178.5C 299.268,177.737 299.768,176.737 300,175.5C 301.193,176.978 301.693,178.312 301.5,179.5C 302.386,178.675 302.719,177.675 302.5,176.5C 303.5,176.5 304.5,176.5 305.5,176.5 Z"/></g>
<g><path style="opacity:1" fill="#2a3335" d="M 238.5,169.5 C 240.228,171.226 242.228,172.559 244.5,173.5C 245.186,174.848 246.186,176.015 247.5,177C 246.833,177.333 246.167,177.667 245.5,178C 246.061,179.676 247.061,181.009 248.5,182C 247.354,182.645 246.354,183.478 245.5,184.5C 244.914,184.291 244.414,183.957 244,183.5C 243,185.5 242,187.5 241,189.5C 240.51,188.207 240.343,186.873 240.5,185.5C 240.244,183.224 238.91,182.057 236.5,182C 234.959,180.629 233.625,179.129 232.5,177.5C 233.496,177.414 234.329,177.748 235,178.5C 235.182,175.774 235.682,173.107 236.5,170.5C 236.833,171.167 237.167,171.833 237.5,172.5C 238.386,171.675 238.719,170.675 238.5,169.5 Z"/></g>
<g><path style="opacity:1" fill="#252e30" d="M 223.5,182.5 C 223.167,183.167 222.833,183.833 222.5,184.5C 221.094,184.973 220.427,185.973 220.5,187.5C 219.193,188.153 217.86,188.82 216.5,189.5C 216.167,188.833 215.833,188.167 215.5,187.5C 214.808,188.025 214.308,188.692 214,189.5C 213.667,189.167 213.333,188.833 213,188.5C 211.915,190.373 210.582,192.04 209,193.5C 208.342,191.892 208.842,190.725 210.5,190C 209.748,189.329 209.414,188.496 209.5,187.5C 209.5,187.167 209.5,186.833 209.5,186.5C 210.708,185.766 212.041,185.433 213.5,185.5C 213.343,184.127 213.51,182.793 214,181.5C 217.493,180.591 220.159,178.591 222,175.5C 223.598,173.105 223.764,170.772 222.5,168.5C 222.5,168.167 222.5,167.833 222.5,167.5C 224.103,166.323 225.436,166.489 226.5,168C 224.541,169.684 224.541,171.684 226.5,174C 225.01,174.745 224.01,175.912 223.5,177.5C 224.807,179.182 224.807,180.848 223.5,182.5 Z"/></g>
<g><path style="opacity:1" fill="#31393c" d="M 277.5,169.5 C 278.797,173.147 278.464,176.814 276.5,180.5C 278.162,181.327 279.495,182.493 280.5,184C 282.5,184.667 284.5,184.667 286.5,184C 290.449,183.193 290.449,182.693 286.5,182.5C 290.303,180.875 294.303,179.542 298.5,178.5C 298.137,180.777 297.137,181.444 295.5,180.5C 293.885,181.154 292.218,181.654 290.5,182C 294.245,181.965 294.912,182.965 292.5,185C 294.087,185.862 295.754,186.529 297.5,187C 295.956,187.29 294.623,187.956 293.5,189C 294.094,189.464 294.761,189.631 295.5,189.5C 295.5,189.833 295.5,190.167 295.5,190.5C 291.057,191.801 286.391,192.468 281.5,192.5C 283.292,191.691 285.292,191.191 287.5,191C 286.207,190.51 284.873,190.343 283.5,190.5C 283.389,188.352 284.056,188.019 285.5,189.5C 286.5,189.167 287.167,188.5 287.5,187.5C 282.86,186.075 278.193,184.742 273.5,183.5C 272.527,181.052 272.194,178.385 272.5,175.5C 276.908,175.938 278.575,173.938 277.5,169.5 Z"/></g>
<g><path style="opacity:1" fill="#222b2d" d="M 330.5,170.5 C 334.269,173.127 336.103,176.794 336,181.5C 337.564,181.912 339.064,182.245 340.5,182.5C 340.557,183.609 340.89,184.609 341.5,185.5C 339.99,186.728 338.49,186.728 337,185.5C 336.333,186.167 335.667,186.833 335,187.5C 334.329,186.748 333.496,186.414 332.5,186.5C 331.833,184.5 331.167,182.5 330.5,180.5C 328.678,180.169 327.011,179.502 325.5,178.5C 325.5,177.5 325.5,176.5 325.5,175.5C 326.458,175.953 327.292,176.619 328,177.5C 328.333,177.167 328.667,176.833 329,176.5C 328.923,177.738 329.089,178.738 329.5,179.5C 330.816,179.432 332.15,179.432 333.5,179.5C 334.893,176.398 334.06,175.398 331,176.5C 329.148,174.77 329.314,173.604 331.5,173C 330.748,172.329 330.414,171.496 330.5,170.5 Z"/></g>
<g><path style="opacity:1" fill="#263133" d="M 261.5,183.5 C 264.519,184.341 267.519,185.341 270.5,186.5C 271.855,185.812 272.855,184.812 273.5,183.5C 278.193,184.742 282.86,186.075 287.5,187.5C 287.167,188.5 286.5,189.167 285.5,189.5C 284.056,188.019 283.389,188.352 283.5,190.5C 280.656,190.343 278.989,191.676 278.5,194.5C 278.093,193.238 277.76,191.905 277.5,190.5C 275.591,191.348 273.591,191.682 271.5,191.5C 271.5,192.5 271.5,193.5 271.5,194.5C 269.307,193.105 266.974,192.105 264.5,191.5C 262.992,190.254 261.492,188.92 260,187.5C 259.227,185.648 259.727,184.314 261.5,183.5 Z"/></g>
<g><path style="opacity:0.878" fill="#5f6266" d="M 325.5,178.5 C 327.011,179.502 328.678,180.169 330.5,180.5C 331.167,182.5 331.833,184.5 332.5,186.5C 333.566,188.701 334.233,191.035 334.5,193.5C 331.761,188.357 328.761,183.357 325.5,178.5 Z"/></g>
<g><path style="opacity:0.055" fill="#b2b3bb" d="M 340.5,182.5 C 341.906,182.973 342.573,183.973 342.5,185.5C 342.167,185.5 341.833,185.5 341.5,185.5C 340.89,184.609 340.557,183.609 340.5,182.5 Z"/></g>
<g><path style="opacity:0.024" fill="#b9b8cc" d="M 222.5,184.5 C 222.573,186.027 221.906,187.027 220.5,187.5C 220.427,185.973 221.094,184.973 222.5,184.5 Z"/></g>
<g><path style="opacity:0.071" fill="#b5b6b8" d="M 251.5,188.5 C 253.38,188.229 254.713,188.896 255.5,190.5C 253.847,190.34 252.514,189.674 251.5,188.5 Z"/></g>
<g><path style="opacity:0.067" fill="#a9afb1" d="M 300.5,188.5 C 299.22,189.931 297.553,190.598 295.5,190.5C 295.5,190.167 295.5,189.833 295.5,189.5C 297.117,188.962 298.784,188.629 300.5,188.5 Z"/></g>
<g><path style="opacity:1" fill="#3a4143" d="M 209.5,187.5 C 209.414,188.496 209.748,189.329 210.5,190C 208.842,190.725 208.342,191.892 209,193.5C 210.582,192.04 211.915,190.373 213,188.5C 213.333,188.833 213.667,189.167 214,189.5C 214.308,188.692 214.808,188.025 215.5,187.5C 215.833,188.167 216.167,188.833 216.5,189.5C 217.86,188.82 219.193,188.153 220.5,187.5C 220.107,189.284 219.441,190.95 218.5,192.5C 216.896,193.287 216.229,194.62 216.5,196.5C 215.312,200.557 214.312,204.557 213.5,208.5C 213.838,203.814 214.005,199.147 214,194.5C 212.846,195.743 211.512,196.743 210,197.5C 209.51,198.793 209.343,200.127 209.5,201.5C 208.209,201.263 207.209,201.596 206.5,202.5C 205.015,204.249 204.015,206.249 203.5,208.5C 203.279,200.753 205.279,193.753 209.5,187.5 Z"/></g>
<g><path style="opacity:0.067" fill="#cdced2" d="M 218.5,192.5 C 218.34,194.153 217.674,195.486 216.5,196.5C 216.229,194.62 216.896,193.287 218.5,192.5 Z"/></g>
<g><path style="opacity:1" fill="#242e30" d="M 278.5,194.5 C 278.153,201.405 278.153,208.405 278.5,215.5C 276.856,215.286 275.356,215.62 274,216.5C 273.161,215.376 271.994,214.709 270.5,214.5C 267.646,215.129 264.646,215.129 261.5,214.5C 259.833,214.667 258.167,214.833 256.5,215C 258.833,215.333 261.167,215.667 263.5,216C 258.146,216.391 252.812,216.891 247.5,217.5C 247.64,215.876 246.973,214.71 245.5,214C 254.581,213.847 262.914,213.347 270.5,212.5C 270.71,206.811 271.043,200.811 271.5,194.5C 271.5,193.5 271.5,192.5 271.5,191.5C 273.591,191.682 275.591,191.348 277.5,190.5C 277.76,191.905 278.093,193.238 278.5,194.5 Z"/></g>
<g><path style="opacity:0.998" fill="#2b3435" d="M 341.5,185.5 C 341.833,185.5 342.167,185.5 342.5,185.5C 344.208,188.95 345.541,192.617 346.5,196.5C 344.755,197.759 343.088,198.925 341.5,200C 342.634,201.016 342.301,201.683 340.5,202C 342.378,203.993 342.712,206.159 341.5,208.5C 340.351,206.075 339.684,206.075 339.5,208.5C 339.167,208.5 338.833,208.5 338.5,208.5C 337.576,203.393 336.242,198.393 334.5,193.5C 334.233,191.035 333.566,188.701 332.5,186.5C 333.496,186.414 334.329,186.748 335,187.5C 335.667,186.833 336.333,186.167 337,185.5C 338.49,186.728 339.99,186.728 341.5,185.5 Z"/></g>
<g><path style="opacity:1" fill="#2f3839" d="M 248.5,194.5 C 248.376,199.049 247.709,203.382 246.5,207.5C 245.837,209.042 245.17,210.709 244.5,212.5C 242.974,212.994 241.641,213.661 240.5,214.5C 239.25,214.423 238.417,213.756 238,212.5C 237.814,209.964 237.314,207.631 236.5,205.5C 236.279,202.721 236.612,200.054 237.5,197.5C 238.924,195.485 239.59,193.152 239.5,190.5C 241.226,190.185 242.893,190.019 244.5,190C 244.112,191.657 243.779,193.657 243.5,196C 243.454,197.728 243.954,199.228 245,200.5C 245.395,198.821 245.228,197.155 244.5,195.5C 245.457,192.72 246.624,190.053 248,187.5C 248.497,189.81 248.663,192.143 248.5,194.5 Z"/></g>
<g><path style="opacity:0.1" fill="#a8a8ab" d="M 313.5,192.5 C 315.082,195.876 315.749,199.542 315.5,203.5C 314.313,200.054 313.646,196.387 313.5,192.5 Z"/></g>
<g><path style="opacity:1" fill="#242f30" d="M 213.5,208.5 C 213.5,208.833 213.5,209.167 213.5,209.5C 213.167,209.5 212.833,209.5 212.5,209.5C 212.649,208.448 212.483,207.448 212,206.5C 211.781,207.938 211.281,209.271 210.5,210.5C 209.197,209.282 208.197,209.615 207.5,211.5C 206.269,210.349 206.269,209.183 207.5,208C 206.833,207.667 206.167,207.333 205.5,207C 206.38,205.644 206.714,204.144 206.5,202.5C 207.209,201.596 208.209,201.263 209.5,201.5C 209.343,200.127 209.51,198.793 210,197.5C 211.512,196.743 212.846,195.743 214,194.5C 214.005,199.147 213.838,203.814 213.5,208.5 Z"/></g>
<g><path style="opacity:0.078" fill="#939596" d="M 346.5,196.5 C 347.924,198.515 348.59,200.848 348.5,203.5C 347.076,201.485 346.41,199.152 346.5,196.5 Z"/></g>
<g><path style="opacity:0.994" fill="#2e3536" d="M 206.5,202.5 C 206.714,204.144 206.38,205.644 205.5,207C 206.167,207.333 206.833,207.667 207.5,208C 206.269,209.183 206.269,210.349 207.5,211.5C 208.197,209.615 209.197,209.282 210.5,210.5C 211.281,209.271 211.781,207.938 212,206.5C 212.483,207.448 212.649,208.448 212.5,209.5C 212.5,210.833 212.5,212.167 212.5,213.5C 220.5,213.5 228.5,213.5 236.5,213.5C 229.5,214.167 222.5,214.833 215.5,215.5C 214.833,215.833 214.167,216.167 213.5,216.5C 212.922,214.557 211.922,214.223 210.5,215.5C 209.304,215.154 209.304,214.654 210.5,214C 205.771,211.283 203.771,213.116 204.5,219.5C 204.613,221.641 205.28,223.475 206.5,225C 205.922,226.417 204.922,227.25 203.5,227.5C 202.167,221.167 202.167,214.833 203.5,208.5C 204.015,206.249 205.015,204.249 206.5,202.5 Z"/></g>
<g><path style="opacity:1" fill="#313b3c" d="M 317.5,218.5 C 317.918,219.222 318.584,219.722 319.5,220C 318.944,220.383 318.611,220.883 318.5,221.5C 317.18,220.058 315.514,219.392 313.5,219.5C 313.271,217.567 312.438,215.9 311,214.5C 309.242,216.873 307.409,216.873 305.5,214.5C 298.072,213.805 290.072,213.138 281.5,212.5C 289.5,212.5 297.5,212.5 305.5,212.5C 305.5,210.5 305.5,208.5 305.5,206.5C 306.91,214.589 308.244,214.423 309.5,206C 308.303,203.411 307.303,200.744 306.5,198C 307.122,195.52 308.456,195.02 310.5,196.5C 313.115,202.598 314.115,208.764 313.5,215C 314.532,216.627 315.866,217.793 317.5,218.5 Z"/></g>
<g><path style="opacity:1" fill="#242d30" d="M 346.5,196.5 C 346.41,199.152 347.076,201.485 348.5,203.5C 348.5,204.5 348.5,205.5 348.5,206.5C 348.666,213.841 348.5,221.174 348,228.5C 347.619,225.959 346.786,223.626 345.5,221.5C 347.278,217.219 346.444,213.553 343,210.5C 342.296,212.727 341.129,213.06 339.5,211.5C 339.5,210.5 339.5,209.5 339.5,208.5C 339.684,206.075 340.351,206.075 341.5,208.5C 342.712,206.159 342.378,203.993 340.5,202C 342.301,201.683 342.634,201.016 341.5,200C 343.088,198.925 344.755,197.759 346.5,196.5 Z"/></g>
<g><path style="opacity:1" fill="#282e32" d="M 283.5,190.5 C 284.873,190.343 286.207,190.51 287.5,191C 285.292,191.191 283.292,191.691 281.5,192.5C 281.5,199.167 281.5,205.833 281.5,212.5C 290.072,213.138 298.072,213.805 305.5,214.5C 298.492,214.334 291.492,214.5 284.5,215C 285.167,215.333 285.833,215.667 286.5,216C 285.748,216.671 285.414,217.504 285.5,218.5C 282.116,219.244 281.782,220.577 284.5,222.5C 283.167,222.5 281.833,222.5 280.5,222.5C 282.839,219.551 282.506,217.551 279.5,216.5C 278.833,216.5 278.5,216.167 278.5,215.5C 278.153,208.405 278.153,201.405 278.5,194.5C 278.989,191.676 280.656,190.343 283.5,190.5 Z"/></g>
<g><path style="opacity:0.125" fill="#85888a" d="M 236.5,206.5 C 236.5,208.833 236.5,211.167 236.5,213.5C 228.5,213.5 220.5,213.5 212.5,213.5C 212.5,212.167 212.5,210.833 212.5,209.5C 212.833,209.5 213.167,209.5 213.5,209.5C 213.5,210.5 213.5,211.5 213.5,212.5C 220.833,212.5 228.167,212.5 235.5,212.5C 235.205,210.265 235.539,208.265 236.5,206.5 Z"/></g>
<g><path style="opacity:0.173" fill="#818587" d="M 315.5,204.5 C 316.473,206.948 316.806,209.615 316.5,212.5C 323.833,212.5 331.167,212.5 338.5,212.5C 338.5,211.167 338.5,209.833 338.5,208.5C 338.833,208.5 339.167,208.5 339.5,208.5C 339.5,209.5 339.5,210.5 339.5,211.5C 339.5,212.167 339.5,212.833 339.5,213.5C 331.5,213.5 323.5,213.5 315.5,213.5C 315.5,210.5 315.5,207.5 315.5,204.5 Z"/></g>
<g><path style="opacity:0.999" fill="#273232" d="M 213.5,216.5 C 213.271,218.433 212.438,220.1 211,221.5C 210.333,220.167 209.667,220.167 209,221.5C 208.383,222.449 208.549,223.282 209.5,224C 207.549,226.711 205.883,229.545 204.5,232.5C 203.549,231.081 203.216,229.415 203.5,227.5C 204.922,227.25 205.922,226.417 206.5,225C 205.28,223.475 204.613,221.641 204.5,219.5C 203.771,213.116 205.771,211.283 210.5,214C 209.304,214.654 209.304,215.154 210.5,215.5C 211.922,214.223 212.922,214.557 213.5,216.5 Z"/></g>
<g><path style="opacity:1" fill="#273033" d="M 236.5,205.5 C 237.314,207.631 237.814,209.964 238,212.5C 238.417,213.756 239.25,214.423 240.5,214.5C 240.063,216.074 239.063,217.241 237.5,218C 238.328,218.915 239.328,219.581 240.5,220C 239.944,220.383 239.611,220.883 239.5,221.5C 238.047,224.394 237.047,227.394 236.5,230.5C 236.5,230.167 236.5,229.833 236.5,229.5C 236.802,226.941 236.468,224.607 235.5,222.5C 234.003,221.694 232.336,221.028 230.5,220.5C 225.565,221.448 220.565,221.781 215.5,221.5C 215.561,219.408 216.561,217.908 218.5,217C 217.756,215.961 216.756,215.461 215.5,215.5C 222.5,214.833 229.5,214.167 236.5,213.5C 236.5,211.167 236.5,208.833 236.5,206.5C 236.5,206.167 236.5,205.833 236.5,205.5 Z"/></g>
<g><path style="opacity:1" fill="#2b3234" d="M 313.5,192.5 C 313.646,196.387 314.313,200.054 315.5,203.5C 315.5,203.833 315.5,204.167 315.5,204.5C 315.5,207.5 315.5,210.5 315.5,213.5C 323.5,213.5 331.5,213.5 339.5,213.5C 337.393,214.468 335.059,214.802 332.5,214.5C 328.167,214.5 323.833,214.5 319.5,214.5C 319.649,215.552 319.483,216.552 319,217.5C 316.821,216.16 316.321,216.493 317.5,218.5C 315.866,217.793 314.532,216.627 313.5,215C 314.115,208.764 313.115,202.598 310.5,196.5C 308.456,195.02 307.122,195.52 306.5,198C 307.303,200.744 308.303,203.411 309.5,206C 308.244,214.423 306.91,214.589 305.5,206.5C 304.407,202.606 303.74,198.606 303.5,194.5C 303.338,192.473 303.505,190.473 304,188.5C 304.333,189.5 304.667,190.5 305,191.5C 305.333,191.167 305.667,190.833 306,190.5C 308.162,193.892 310.662,194.559 313.5,192.5 Z"/></g>
<g><path style="opacity:1" fill="#2a3134" d="M 215.5,215.5 C 216.756,215.461 217.756,215.961 218.5,217C 216.561,217.908 215.561,219.408 215.5,221.5C 220.565,221.781 225.565,221.448 230.5,220.5C 232.336,221.028 234.003,221.694 235.5,222.5C 227.833,222.5 220.167,222.5 212.5,222.5C 212.232,224.099 212.566,225.432 213.5,226.5C 214.742,228.611 214.742,230.611 213.5,232.5C 210.482,232.704 207.482,233.037 204.5,233.5C 204.5,233.167 204.5,232.833 204.5,232.5C 205.883,229.545 207.549,226.711 209.5,224C 208.549,223.282 208.383,222.449 209,221.5C 209.667,220.167 210.333,220.167 211,221.5C 212.438,220.1 213.271,218.433 213.5,216.5C 214.167,216.167 214.833,215.833 215.5,215.5 Z"/></g>
<g><path style="opacity:1" fill="#3b4647" d="M 246.5,207.5 C 246.5,209.167 246.5,210.833 246.5,212.5C 254.5,212.5 262.5,212.5 270.5,212.5C 262.914,213.347 254.581,213.847 245.5,214C 246.973,214.71 247.64,215.876 247.5,217.5C 252.812,216.891 258.146,216.391 263.5,216C 261.167,215.667 258.833,215.333 256.5,215C 258.167,214.833 259.833,214.667 261.5,214.5C 264.646,215.129 267.646,215.129 270.5,214.5C 271.994,214.709 273.161,215.376 274,216.5C 275.356,215.62 276.856,215.286 278.5,215.5C 278.5,216.167 278.833,216.5 279.5,216.5C 279.313,218.564 278.813,220.564 278,222.5C 276.575,223.079 274.908,223.079 273,222.5C 271.961,223.244 271.461,224.244 271.5,225.5C 263.436,223.578 255.103,222.912 246.5,223.5C 253.989,222.671 261.656,222.171 269.5,222C 268.619,220.529 267.286,219.696 265.5,219.5C 262.383,219.266 259.55,219.266 257,219.5C 256.333,218.833 255.667,218.167 255,217.5C 251.505,218.034 248.338,219.367 245.5,221.5C 245.167,220.833 244.833,220.167 244.5,219.5C 243.158,221.005 241.492,221.672 239.5,221.5C 239.611,220.883 239.944,220.383 240.5,220C 239.328,219.581 238.328,218.915 237.5,218C 239.063,217.241 240.063,216.074 240.5,214.5C 241.641,213.661 242.974,212.994 244.5,212.5C 245.17,210.709 245.837,209.042 246.5,207.5 Z"/></g>
<g><path style="opacity:1" fill="#243132" d="M 305.5,214.5 C 307.409,216.873 309.242,216.873 311,214.5C 312.438,215.9 313.271,217.567 313.5,219.5C 311.876,219.36 310.71,220.027 310,221.5C 309.617,220.944 309.117,220.611 308.5,220.5C 306.105,219.186 303.605,219.186 301,220.5C 300,219.5 299,218.5 298,217.5C 297,218.167 296,218.833 295,219.5C 293.333,219.167 291.667,218.833 290,218.5C 288.036,220.688 286.536,220.688 285.5,218.5C 285.414,217.504 285.748,216.671 286.5,216C 285.833,215.667 285.167,215.333 284.5,215C 291.492,214.5 298.492,214.334 305.5,214.5 Z"/></g>
<g><path style="opacity:1" fill="#333c3d" d="M 348.5,206.5 C 349.702,215.681 349.702,225.014 348.5,234.5C 345.171,234.785 342.171,234.118 339.5,232.5C 345.28,231.784 345.614,230.45 340.5,228.5C 341.498,225.972 342.331,225.972 343,228.5C 343.448,226.776 344.282,226.109 345.5,226.5C 344.271,225.719 342.938,225.219 341.5,225C 342.5,224.667 343.5,224.333 344.5,224C 343.113,222.317 341.447,221.15 339.5,220.5C 340.738,220.19 340.738,219.69 339.5,219C 337.25,217.274 334.917,215.774 332.5,214.5C 335.059,214.802 337.393,214.468 339.5,213.5C 339.5,212.833 339.5,212.167 339.5,211.5C 341.129,213.06 342.296,212.727 343,210.5C 346.444,213.553 347.278,217.219 345.5,221.5C 346.786,223.626 347.619,225.959 348,228.5C 348.5,221.174 348.666,213.841 348.5,206.5 Z"/></g>
<g><path style="opacity:1" fill="#262f31" d="M 308.5,220.5 C 309.263,224.752 308.596,225.085 306.5,221.5C 305.893,221.624 305.56,221.957 305.5,222.5C 304.508,222.328 303.842,222.662 303.5,223.5C 303.167,223.5 302.833,223.5 302.5,223.5C 296.69,222.51 290.69,222.177 284.5,222.5C 281.782,220.577 282.116,219.244 285.5,218.5C 286.536,220.688 288.036,220.688 290,218.5C 291.667,218.833 293.333,219.167 295,219.5C 296,218.833 297,218.167 298,217.5C 299,218.5 300,219.5 301,220.5C 303.605,219.186 306.105,219.186 308.5,220.5 Z"/></g>
<g><path style="opacity:1" fill="#253033" d="M 332.5,214.5 C 334.917,215.774 337.25,217.274 339.5,219C 340.738,219.69 340.738,220.19 339.5,220.5C 332.8,221.323 325.8,221.656 318.5,221.5C 318.611,220.883 318.944,220.383 319.5,220C 318.584,219.722 317.918,219.222 317.5,218.5C 316.321,216.493 316.821,216.16 319,217.5C 319.483,216.552 319.649,215.552 319.5,214.5C 323.833,214.5 328.167,214.5 332.5,214.5 Z"/></g>
<g><path style="opacity:1" fill="#232c2f" d="M 279.5,216.5 C 282.506,217.551 282.839,219.551 280.5,222.5C 280.5,228.167 280.5,233.833 280.5,239.5C 277.5,239.5 274.5,239.5 271.5,239.5C 271.354,234.622 271.354,229.956 271.5,225.5C 271.461,224.244 271.961,223.244 273,222.5C 274.908,223.079 276.575,223.079 278,222.5C 278.813,220.564 279.313,218.564 279.5,216.5 Z"/></g>
<g><path style="opacity:0.022" fill="#f6f8f8" d="M 235.5,222.5 C 236.468,224.607 236.802,226.941 236.5,229.5C 235.539,227.735 235.205,225.735 235.5,223.5C 228.167,223.5 220.833,223.5 213.5,223.5C 213.5,224.5 213.5,225.5 213.5,226.5C 212.566,225.432 212.232,224.099 212.5,222.5C 220.167,222.5 227.833,222.5 235.5,222.5 Z"/></g>
<g><path style="opacity:0.978" fill="#2d3537" d="M 246.5,223.5 C 247.127,228.141 247.46,232.807 247.5,237.5C 246.167,237.5 244.833,237.5 243.5,237.5C 241.379,237.675 239.379,237.341 237.5,236.5C 236.539,234.735 236.205,232.735 236.5,230.5C 237.047,227.394 238.047,224.394 239.5,221.5C 241.492,221.672 243.158,221.005 244.5,219.5C 244.833,220.167 245.167,220.833 245.5,221.5C 248.338,219.367 251.505,218.034 255,217.5C 255.667,218.167 256.333,218.833 257,219.5C 259.55,219.266 262.383,219.266 265.5,219.5C 267.286,219.696 268.619,220.529 269.5,222C 261.656,222.171 253.989,222.671 246.5,223.5 Z"/></g>
<g><path style="opacity:1" fill="#2f373a" d="M 313.5,219.5 C 315.514,219.392 317.18,220.058 318.5,221.5C 325.8,221.656 332.8,221.323 339.5,220.5C 341.447,221.15 343.113,222.317 344.5,224C 343.5,224.333 342.5,224.667 341.5,225C 342.938,225.219 344.271,225.719 345.5,226.5C 344.282,226.109 343.448,226.776 343,228.5C 342.331,225.972 341.498,225.972 340.5,228.5C 345.614,230.45 345.28,231.784 339.5,232.5C 338.539,230.735 338.205,228.735 338.5,226.5C 339.434,225.432 339.768,224.099 339.5,222.5C 331.648,222.175 323.982,222.508 316.5,223.5C 316.698,228.75 316.031,233.75 314.5,238.5C 313.504,238.586 312.671,238.252 312,237.5C 311.691,236.234 311.191,235.067 310.5,234C 311.787,230.875 311.787,227.709 310.5,224.5C 309.713,225.242 309.047,226.075 308.5,227C 309.576,228.726 309.743,230.559 309,232.5C 308.392,230.934 307.558,229.6 306.5,228.5C 306.795,226.265 306.461,224.265 305.5,222.5C 305.56,221.957 305.893,221.624 306.5,221.5C 308.596,225.085 309.263,224.752 308.5,220.5C 309.117,220.611 309.617,220.944 310,221.5C 310.71,220.027 311.876,219.36 313.5,219.5 Z"/></g>
<g><path style="opacity:0.024" fill="#f9fafa" d="M 316.5,223.5 C 323.982,222.508 331.648,222.175 339.5,222.5C 339.768,224.099 339.434,225.432 338.5,226.5C 338.5,225.5 338.5,224.5 338.5,223.5C 331.167,223.5 323.833,223.5 316.5,223.5 Z"/></g>
<g><path style="opacity:0.357" fill="#838588" d="M 303.5,223.5 C 303.842,222.662 304.508,222.328 305.5,222.5C 306.461,224.265 306.795,226.265 306.5,228.5C 306.5,229.167 306.167,229.5 305.5,229.5C 305.975,226.918 305.308,224.918 303.5,223.5 Z"/></g>
<g><path style="opacity:0.149" fill="#a2a5a3" d="M 213.5,232.5 C 210.591,234.287 207.591,234.621 204.5,233.5C 207.482,233.037 210.482,232.704 213.5,232.5 Z"/></g>
<g><path style="opacity:0.106" fill="#8a8d8e" d="M 280.5,222.5 C 281.833,222.5 283.167,222.5 284.5,222.5C 290.69,222.177 296.69,222.51 302.5,223.5C 295.5,223.5 288.5,223.5 281.5,223.5C 281.5,229.167 281.5,234.833 281.5,240.5C 277.958,240.813 274.625,240.479 271.5,239.5C 274.5,239.5 277.5,239.5 280.5,239.5C 280.5,233.833 280.5,228.167 280.5,222.5 Z"/></g>
<g><path style="opacity:1" fill="#313c3e" d="M 314.5,238.5 C 314.784,240.415 314.451,242.081 313.5,243.5C 312.732,244.263 312.232,245.263 312,246.5C 310.667,245.167 309.333,245.167 308,246.5C 306.883,245.051 306.216,243.384 306,241.5C 304.886,245.456 304.053,245.456 303.5,241.5C 303.717,237.295 304.383,233.295 305.5,229.5C 306.167,229.5 306.5,229.167 306.5,228.5C 307.558,229.6 308.392,230.934 309,232.5C 309.743,230.559 309.576,228.726 308.5,227C 309.047,226.075 309.713,225.242 310.5,224.5C 311.787,227.709 311.787,230.875 310.5,234C 311.191,235.067 311.691,236.234 312,237.5C 312.671,238.252 313.504,238.586 314.5,238.5 Z"/></g>
<g><path style="opacity:0.267" fill="#989b9e" d="M 237.5,236.5 C 239.379,237.341 241.379,237.675 243.5,237.5C 242.726,238.147 241.726,238.48 240.5,238.5C 238.97,238.36 237.97,237.693 237.5,236.5 Z"/></g>
<g><path style="opacity:1" fill="#3d4446" d="M 225.5,241.5 C 225.5,242.167 225.5,242.833 225.5,243.5C 216.659,243.328 209.992,243.828 205.5,245C 204.66,246.666 205.16,246.833 207,245.5C 207.49,246.793 207.657,248.127 207.5,249.5C 211.136,249.406 214.636,248.739 218,247.5C 220.815,247.895 222.982,249.228 224.5,251.5C 218.833,251.5 213.167,251.5 207.5,251.5C 205.102,251.259 203.102,251.926 201.5,253.5C 201.158,254.338 200.492,254.672 199.5,254.5C 199.923,253.735 200.257,252.902 200.5,252C 199.387,250.606 198.053,249.439 196.5,248.5C 197.727,247.41 198.56,246.076 199,244.5C 200.164,244.165 201.497,244.165 203,244.5C 203.985,243.186 205.152,242.186 206.5,241.5C 212.833,240.167 219.167,240.167 225.5,241.5 Z"/></g>
<g><path style="opacity:1" fill="#242f31" d="M 225.5,243.5 C 228.045,244.273 230.045,245.773 231.5,248C 230.833,248.333 230.167,248.667 229.5,249C 231.167,250 232.5,251.333 233.5,253C 232.906,253.464 232.239,253.631 231.5,253.5C 231.167,253.5 230.833,253.5 230.5,253.5C 228.898,251.926 226.898,251.259 224.5,251.5C 222.982,249.228 220.815,247.895 218,247.5C 214.636,248.739 211.136,249.406 207.5,249.5C 207.657,248.127 207.49,246.793 207,245.5C 205.16,246.833 204.66,246.666 205.5,245C 209.992,243.828 216.659,243.328 225.5,243.5 Z"/></g>
<g><path style="opacity:1" fill="#353d3e" d="M 225.5,241.5 C 230.165,242.057 234.498,243.39 238.5,245.5C 236.571,245.231 234.905,245.731 233.5,247C 236.059,249.267 238.726,251.434 241.5,253.5C 239.993,254.739 238.826,254.405 238,252.5C 237.487,253.527 236.987,254.527 236.5,255.5C 234.597,255.204 232.93,254.537 231.5,253.5C 232.239,253.631 232.906,253.464 233.5,253C 232.5,251.333 231.167,250 229.5,249C 230.167,248.667 230.833,248.333 231.5,248C 230.045,245.773 228.045,244.273 225.5,243.5C 225.5,242.833 225.5,242.167 225.5,241.5 Z"/></g>
<g><path style="opacity:0.965" fill="#484d51" d="M 303.5,241.5 C 304.053,245.456 304.886,245.456 306,241.5C 306.216,243.384 306.883,245.051 308,246.5C 309.333,245.167 310.667,245.167 312,246.5C 312.232,245.263 312.732,244.263 313.5,243.5C 314.073,246.617 312.906,248.617 310,249.5C 307.551,249.139 305.218,248.472 303,247.5C 302.211,245.288 302.378,243.288 303.5,241.5 Z"/></g>
<g><path style="opacity:1" fill="#373f41" d="M 352.5,245.5 C 352.5,246.833 352.5,248.167 352.5,249.5C 350.863,250.218 349.197,250.384 347.5,250C 349.595,249.444 349.762,248.944 348,248.5C 346.124,249.619 345.291,251.286 345.5,253.5C 347.564,253.687 349.564,254.187 351.5,255C 350.944,255.383 350.611,255.883 350.5,256.5C 348.843,255.425 347.009,254.758 345,254.5C 342.718,255.29 340.552,256.29 338.5,257.5C 339.742,254.138 341.742,251.304 344.5,249C 342.868,247.69 341.201,247.19 339.5,247.5C 340.729,246.719 342.062,246.219 343.5,246C 341.115,245.444 338.782,245.61 336.5,246.5C 336.611,245.883 336.944,245.383 337.5,245C 342.721,242.907 347.721,243.073 352.5,245.5 Z"/></g>
<g><path style="opacity:1" fill="#3e4748" d="M 238.5,245.5 C 250.505,245.333 262.505,245.5 274.5,246C 276.641,246.573 278.641,247.406 280.5,248.5C 280.833,250.833 282.167,252.167 284.5,252.5C 285.738,254.214 286.405,256.214 286.5,258.5C 285.778,258.082 285.278,257.416 285,256.5C 282.148,258.871 280.314,261.871 279.5,265.5C 277.87,267.264 275.87,268.264 273.5,268.5C 274.512,267.128 275.512,265.795 276.5,264.5C 277.147,263.726 277.48,262.726 277.5,261.5C 277.36,259.97 276.693,258.97 275.5,258.5C 274.711,258.217 274.044,257.717 273.5,257C 260.993,256.831 248.66,256.331 236.5,255.5C 248.838,255.667 261.171,255.5 273.5,255C 272.229,252.671 270.229,251.505 267.5,251.5C 261.518,252.331 255.518,252.998 249.5,253.5C 245.483,253.388 241.817,252.221 238.5,250C 243.999,248.853 249.666,248.353 255.5,248.5C 261.246,248.526 266.746,249.193 272,250.5C 273.609,249.853 275.109,249.02 276.5,248C 263.652,247.56 250.985,246.727 238.5,245.5 Z"/></g>
<g><path style="opacity:1" fill="#2f3837" d="M 206.5,241.5 C 205.152,242.186 203.985,243.186 203,244.5C 201.497,244.165 200.164,244.165 199,244.5C 198.56,246.076 197.727,247.41 196.5,248.5C 198.053,249.439 199.387,250.606 200.5,252C 200.257,252.902 199.923,253.735 199.5,254.5C 195.42,257.854 191.42,261.187 187.5,264.5C 185.54,265.138 183.707,265.138 182,264.5C 181.544,263.256 182.044,262.423 183.5,262C 182.366,260.984 182.699,260.317 184.5,260C 183.177,259.184 182.511,258.017 182.5,256.5C 183.906,256.027 184.573,255.027 184.5,253.5C 190.02,246.402 197.354,242.402 206.5,241.5 Z"/></g>
<g><path style="opacity:0.22" fill="#8f9292" d="M 280.5,248.5 C 282.167,249.5 283.5,250.833 284.5,252.5C 282.167,252.167 280.833,250.833 280.5,248.5 Z"/></g>
<g><path style="opacity:0.027" fill="#b2b3b3" d="M 207.5,251.5 C 205.786,252.738 203.786,253.405 201.5,253.5C 203.102,251.926 205.102,251.259 207.5,251.5 Z"/></g>
<g><path style="opacity:0.063" fill="#b1b1b2" d="M 224.5,251.5 C 226.898,251.259 228.898,251.926 230.5,253.5C 228.214,253.405 226.214,252.738 224.5,251.5 Z"/></g>
<g><path style="opacity:0.996" fill="#232c2e" d="M 238.5,245.5 C 250.985,246.727 263.652,247.56 276.5,248C 275.109,249.02 273.609,249.853 272,250.5C 266.746,249.193 261.246,248.526 255.5,248.5C 249.666,248.353 243.999,248.853 238.5,250C 241.817,252.221 245.483,253.388 249.5,253.5C 255.518,252.998 261.518,252.331 267.5,251.5C 270.229,251.505 272.229,252.671 273.5,255C 261.171,255.5 248.838,255.667 236.5,255.5C 236.987,254.527 237.487,253.527 238,252.5C 238.826,254.405 239.993,254.739 241.5,253.5C 238.726,251.434 236.059,249.267 233.5,247C 234.905,245.731 236.571,245.231 238.5,245.5 Z"/></g>
<g><path style="opacity:1" fill="#283234" d="M 338.5,257.5 C 337.486,258.674 336.153,259.34 334.5,259.5C 332.596,259.738 331.262,260.738 330.5,262.5C 329.127,262.657 327.793,262.49 326.5,262C 325.167,261.333 325.167,260.667 326.5,260C 324.888,259.28 323.388,259.446 322,260.5C 320.294,259.692 319.461,258.359 319.5,256.5C 320.93,256.421 322.264,256.754 323.5,257.5C 324.236,255.296 325.569,253.63 327.5,252.5C 330.32,250.255 333.32,248.255 336.5,246.5C 338.782,245.61 341.115,245.444 343.5,246C 342.062,246.219 340.729,246.719 339.5,247.5C 341.201,247.19 342.868,247.69 344.5,249C 341.742,251.304 339.742,254.138 338.5,257.5 Z"/></g>
<g><path style="opacity:0.176" fill="#b3b5b7" d="M 184.5,253.5 C 184.573,255.027 183.906,256.027 182.5,256.5C 182.427,254.973 183.094,253.973 184.5,253.5 Z"/></g>
<g><path style="opacity:0.997" fill="#3d4346" d="M 352.5,245.5 C 356.099,247.263 358.932,249.93 361,253.5C 361.667,258.167 361.667,262.833 361,267.5C 360.623,268.942 359.79,269.942 358.5,270.5C 358.94,265.494 358.94,260.161 358.5,254.5C 356.49,252.09 354.49,250.423 352.5,249.5C 352.5,248.167 352.5,246.833 352.5,245.5 Z"/></g>
<g><path style="opacity:0.106" fill="#a5a7a8" d="M 275.5,258.5 C 276.693,258.97 277.36,259.97 277.5,261.5C 277.48,262.726 277.147,263.726 276.5,264.5C 276.675,262.379 276.341,260.379 275.5,258.5 Z"/></g>
<g><path style="opacity:0.212" fill="#7c7e7f" d="M 314.5,258.5 C 312.68,260.448 310.346,261.448 307.5,261.5C 309.426,259.707 311.759,258.707 314.5,258.5 Z"/></g>
<g><path style="opacity:1" fill="#3c4446" d="M 327.5,252.5 C 325.569,253.63 324.236,255.296 323.5,257.5C 322.264,256.754 320.93,256.421 319.5,256.5C 319.461,258.359 320.294,259.692 322,260.5C 323.388,259.446 324.888,259.28 326.5,260C 325.167,260.667 325.167,261.333 326.5,262C 327.793,262.49 329.127,262.657 330.5,262.5C 327.021,264.403 323.354,266.07 319.5,267.5C 319.5,266.167 319.5,264.833 319.5,263.5C 316.466,263.391 315.466,262.057 316.5,259.5C 316.043,258.702 315.376,258.369 314.5,258.5C 318.405,255.716 322.738,253.716 327.5,252.5 Z"/></g>
<g><path style="opacity:0.027" fill="#b6b6b6" d="M 334.5,259.5 C 333.738,261.262 332.404,262.262 330.5,262.5C 331.262,260.738 332.596,259.738 334.5,259.5 Z"/></g>
<g><path style="opacity:0.153" fill="#acafaf" d="M 176.5,262.5 C 176.167,263.167 175.833,263.833 175.5,264.5C 174.833,264.833 174.167,265.167 173.5,265.5C 173.5,263.5 174.5,262.5 176.5,262.5 Z"/></g>
<g><path style="opacity:0.984" fill="#353e3c" d="M 182.5,256.5 C 182.511,258.017 183.177,259.184 184.5,260C 182.699,260.317 182.366,260.984 183.5,262C 182.044,262.423 181.544,263.256 182,264.5C 183.707,265.138 185.54,265.138 187.5,264.5C 183.617,270.056 178.951,275.056 173.5,279.5C 173.822,277.278 173.155,275.444 171.5,274C 172.899,273.405 174.232,273.572 175.5,274.5C 176.696,274.154 176.696,273.654 175.5,273C 177.002,272.417 178.335,271.584 179.5,270.5C 177.634,268.744 176.301,266.744 175.5,264.5C 175.833,263.833 176.167,263.167 176.5,262.5C 177.596,259.614 179.596,257.614 182.5,256.5 Z"/></g>
<g><path style="opacity:1" fill="#263032" d="M 352.5,249.5 C 354.49,250.423 356.49,252.09 358.5,254.5C 358.94,260.161 358.94,265.494 358.5,270.5C 358.5,271.167 358.167,271.5 357.5,271.5C 355.25,271.819 353.25,271.319 351.5,270C 351.986,267.973 351.986,265.807 351.5,263.5C 351.552,261.097 351.219,258.764 350.5,256.5C 350.611,255.883 350.944,255.383 351.5,255C 349.564,254.187 347.564,253.687 345.5,253.5C 345.291,251.286 346.124,249.619 348,248.5C 349.762,248.944 349.595,249.444 347.5,250C 349.197,250.384 350.863,250.218 352.5,249.5 Z"/></g>
<g><path style="opacity:1" fill="#2b3336" d="M 314.5,258.5 C 315.376,258.369 316.043,258.702 316.5,259.5C 315.466,262.057 316.466,263.391 319.5,263.5C 319.5,264.833 319.5,266.167 319.5,267.5C 318.833,267.5 318.167,267.5 317.5,267.5C 314.873,268.105 312.207,268.605 309.5,269C 310.167,269.333 310.833,269.667 311.5,270C 310.584,270.278 309.918,270.778 309.5,271.5C 305.059,273.538 300.393,275.204 295.5,276.5C 296.833,275.167 298.167,273.833 299.5,272.5C 298.499,271.211 298.666,269.878 300,268.5C 300.333,269.5 300.667,270.5 301,271.5C 301.167,270.833 301.333,270.167 301.5,269.5C 299.917,268.071 299.25,266.571 299.5,265C 302.476,264.295 305.142,263.129 307.5,261.5C 310.346,261.448 312.68,260.448 314.5,258.5 Z"/></g>
<g><path style="opacity:1" fill="#333c3d" d="M 286.5,258.5 C 287.833,260.833 287.833,263.167 286.5,265.5C 285.596,266.209 285.263,267.209 285.5,268.5C 288.252,268.422 290.918,268.255 293.5,268C 292.78,270.122 291.613,270.622 290,269.5C 289.333,270.5 289.333,271.5 290,272.5C 293.143,272.787 296.31,272.787 299.5,272.5C 298.167,273.833 296.833,275.167 295.5,276.5C 295.167,276.5 294.833,276.5 294.5,276.5C 292.234,276.859 290.401,276.192 289,274.5C 287.989,275.337 286.822,275.67 285.5,275.5C 285.5,274.167 285.5,272.833 285.5,271.5C 283.007,271.671 281.174,270.671 280,268.5C 279.147,270.125 278.147,270.458 277,269.5C 274.834,271.121 272.334,271.955 269.5,272C 271.136,273.434 272.136,275.267 272.5,277.5C 275.768,278.487 279.102,278.82 282.5,278.5C 268.677,279.496 254.677,279.829 240.5,279.5C 240.211,275.894 240.544,272.394 241.5,269C 248.518,268.435 255.518,268.601 262.5,269.5C 263.679,271.507 263.179,271.84 261,270.5C 255.917,271.307 250.75,271.807 245.5,272C 243.475,273.194 243.141,274.694 244.5,276.5C 246.833,276.833 249.167,277.167 251.5,277.5C 256.686,276.316 261.686,276.316 266.5,277.5C 266.833,277.167 267.167,276.833 267.5,276.5C 267.136,274.267 266.136,272.434 264.5,271C 265.784,270.316 266.951,270.483 268,271.5C 270.209,271.011 272.042,270.011 273.5,268.5C 275.87,268.264 277.87,267.264 279.5,265.5C 280.314,261.871 282.148,258.871 285,256.5C 285.278,257.416 285.778,258.082 286.5,258.5 Z"/></g>
<g><path style="opacity:1" fill="#323a3c" d="M 307.5,261.5 C 305.142,263.129 302.476,264.295 299.5,265C 299.25,266.571 299.917,268.071 301.5,269.5C 301.333,270.167 301.167,270.833 301,271.5C 300.667,270.5 300.333,269.5 300,268.5C 298.666,269.878 298.499,271.211 299.5,272.5C 296.31,272.787 293.143,272.787 290,272.5C 289.333,271.5 289.333,270.5 290,269.5C 291.613,270.622 292.78,270.122 293.5,268C 290.918,268.255 288.252,268.422 285.5,268.5C 285.263,267.209 285.596,266.209 286.5,265.5C 286.369,266.376 286.702,267.043 287.5,267.5C 294.174,265.495 300.841,263.495 307.5,261.5 Z"/></g>
<g><path style="opacity:0.898" fill="#6c6e73" d="M 317.5,267.5 C 315.421,269.873 312.754,271.206 309.5,271.5C 309.918,270.778 310.584,270.278 311.5,270C 310.833,269.667 310.167,269.333 309.5,269C 312.207,268.605 314.873,268.105 317.5,267.5 Z"/></g>
<g><path style="opacity:0.086" fill="#989d9e" d="M 347.5,267.5 C 345.853,269.326 343.853,270.66 341.5,271.5C 342.802,269.178 344.802,267.845 347.5,267.5 Z"/></g>
<g><path style="opacity:0.094" fill="#aab1b1" d="M 171.5,267.5 C 170.833,268.833 169.833,269.833 168.5,270.5C 168.5,268.5 169.5,267.5 171.5,267.5 Z"/></g>
<g><path style="opacity:0.998" fill="#2d3638" d="M 351.5,263.5 C 351.986,265.807 351.986,267.973 351.5,270C 353.25,271.319 355.25,271.819 357.5,271.5C 351.594,277.728 344.594,282.395 336.5,285.5C 330.621,286.493 325.621,286.493 321.5,285.5C 321.5,284.5 321.5,283.5 321.5,282.5C 323.027,282.573 324.027,281.906 324.5,280.5C 330.035,277.233 335.702,274.233 341.5,271.5C 343.853,270.66 345.853,269.326 347.5,267.5C 348.5,265.833 349.833,264.5 351.5,263.5 Z"/></g>
<g><path style="opacity:1" fill="#263333" d="M 273.5,268.5 C 272.042,270.011 270.209,271.011 268,271.5C 266.951,270.483 265.784,270.316 264.5,271C 266.136,272.434 267.136,274.267 267.5,276.5C 267.167,276.833 266.833,277.167 266.5,277.5C 261.686,276.316 256.686,276.316 251.5,277.5C 249.167,277.167 246.833,276.833 244.5,276.5C 243.141,274.694 243.475,273.194 245.5,272C 250.75,271.807 255.917,271.307 261,270.5C 263.179,271.84 263.679,271.507 262.5,269.5C 266.215,269.577 269.881,269.244 273.5,268.5 Z"/></g>
<g><path style="opacity:1" fill="#253031" d="M 157.5,281.5 C 156.5,283.167 155.167,284.5 153.5,285.5C 151.621,285.607 151.288,285.107 152.5,284C 151.558,280.752 150.225,280.252 148.5,282.5C 148.167,282 147.833,281.5 147.5,281C 148.148,279.56 148.481,278.06 148.5,276.5C 151.682,275.391 154.682,274.225 157.5,273C 158.357,273.689 159.023,274.522 159.5,275.5C 160.089,277.712 159.423,279.712 157.5,281.5 Z"/></g>
<g><path style="opacity:1" fill="#343c3e" d="M 167.5,271.5 C 166.697,272.423 166.53,273.423 167,274.5C 167.914,273.346 168.747,273.513 169.5,275C 163.973,276.559 161.973,280.059 163.5,285.5C 161.754,283.748 159.754,282.415 157.5,281.5C 159.423,279.712 160.089,277.712 159.5,275.5C 159.023,274.522 158.357,273.689 157.5,273C 154.682,274.225 151.682,275.391 148.5,276.5C 151.506,272.827 154.839,269.494 158.5,266.5C 160.874,268.215 163.04,270.215 165,272.5C 165.671,271.748 166.504,271.414 167.5,271.5 Z"/></g>
<g><path style="opacity:1" fill="#263030" d="M 175.5,264.5 C 176.301,266.744 177.634,268.744 179.5,270.5C 178.335,271.584 177.002,272.417 175.5,273C 176.696,273.654 176.696,274.154 175.5,274.5C 174.232,273.572 172.899,273.405 171.5,274C 173.155,275.444 173.822,277.278 173.5,279.5C 172.986,280.625 172.653,281.791 172.5,283C 173.167,283.333 173.833,283.667 174.5,284C 173.069,284.465 171.903,285.299 171,286.5C 168.708,286.445 166.541,286.445 164.5,286.5C 164.5,285.833 164.167,285.5 163.5,285.5C 161.973,280.059 163.973,276.559 169.5,275C 168.747,273.513 167.914,273.346 167,274.5C 166.53,273.423 166.697,272.423 167.5,271.5C 167.5,270.833 167.833,270.5 168.5,270.5C 169.833,269.833 170.833,268.833 171.5,267.5C 171.833,266.5 172.5,265.833 173.5,265.5C 174.167,265.167 174.833,264.833 175.5,264.5 Z"/></g>
<g><path style="opacity:1" fill="#2b3436" d="M 294.5,276.5 C 290.733,277.795 286.733,278.461 282.5,278.5C 279.102,278.82 275.768,278.487 272.5,277.5C 272.136,275.267 271.136,273.434 269.5,272C 272.334,271.955 274.834,271.121 277,269.5C 278.147,270.458 279.147,270.125 280,268.5C 281.174,270.671 283.007,271.671 285.5,271.5C 285.5,272.833 285.5,274.167 285.5,275.5C 286.822,275.67 287.989,275.337 289,274.5C 290.401,276.192 292.234,276.859 294.5,276.5 Z"/></g>
<g><path style="opacity:1" fill="#353b3c" d="M 148.5,276.5 C 148.481,278.06 148.148,279.56 147.5,281C 147.833,281.5 148.167,282 148.5,282.5C 150.225,280.252 151.558,280.752 152.5,284C 151.288,285.107 151.621,285.607 153.5,285.5C 151.833,288.5 149.5,290.833 146.5,292.5C 145.167,292.167 143.833,291.833 142.5,291.5C 141.685,290.163 140.518,289.163 139,288.5C 138.333,287.5 138.333,286.5 139,285.5C 142.036,282.296 145.203,279.296 148.5,276.5 Z"/></g>
<g><path style="opacity:0.176" fill="#b6b6b9" d="M 324.5,280.5 C 324.027,281.906 323.027,282.573 321.5,282.5C 321.973,281.094 322.973,280.427 324.5,280.5 Z"/></g>
<g><path style="opacity:0.99" fill="#323b3b" d="M 173.5,279.5 C 174.943,282.077 176.61,284.41 178.5,286.5C 177.737,290.385 175.404,292.719 171.5,293.5C 169.167,291.167 166.833,288.833 164.5,286.5C 166.541,286.445 168.708,286.445 171,286.5C 171.903,285.299 173.069,284.465 174.5,284C 173.833,283.667 173.167,283.333 172.5,283C 172.653,281.791 172.986,280.625 173.5,279.5 Z"/></g>
<g><path style="opacity:0.965" fill="#394141" d="M 321.5,282.5 C 321.5,283.5 321.5,284.5 321.5,285.5C 325.621,286.493 330.621,286.493 336.5,285.5C 332.167,288.669 327.5,291.336 322.5,293.5C 322.611,292.883 322.944,292.383 323.5,292C 321.9,290.392 320.567,288.559 319.5,286.5C 320.744,284.621 320.41,284.288 318.5,285.5C 317.754,286.736 317.421,288.07 317.5,289.5C 315.389,290.38 313.389,290.38 311.5,289.5C 309.194,289.993 306.861,290.326 304.5,290.5C 309.977,287.597 315.643,284.93 321.5,282.5 Z"/></g>
<g><path style="opacity:1" fill="#3d4444" d="M 178.5,286.5 C 179.239,286.369 179.906,286.536 180.5,287C 183.747,289.741 186.414,292.908 188.5,296.5C 187.178,296.67 186.011,296.337 185,295.5C 184.163,297.007 182.996,297.507 181.5,297C 182.833,296 182.833,295 181.5,294C 182.738,294.077 183.738,293.911 184.5,293.5C 183.307,291.616 181.641,291.116 179.5,292C 180.517,293.049 180.684,294.216 180,295.5C 179.577,294.044 178.744,293.544 177.5,294C 178.38,295.356 178.714,296.856 178.5,298.5C 179.552,298.351 180.552,298.517 181.5,299C 180.587,300.414 180.587,301.914 181.5,303.5C 178.124,300.158 174.791,296.825 171.5,293.5C 175.404,292.719 177.737,290.385 178.5,286.5 Z"/></g>
<g><path style="opacity:0.053" fill="#b4b4b4" d="M 142.5,291.5 C 143.833,291.833 145.167,292.167 146.5,292.5C 144.872,293.853 143.538,293.519 142.5,291.5 Z"/></g>
<g><path style="opacity:0.951" fill="#313a3c" d="M 322.5,293.5 C 316.992,296.419 311.326,299.086 305.5,301.5C 306.598,300.603 306.598,299.77 305.5,299C 307.167,298.667 308.833,298.333 310.5,298C 310.167,297.667 309.833,297.333 309.5,297C 312.147,294.91 312.814,292.41 311.5,289.5C 313.389,290.38 315.389,290.38 317.5,289.5C 317.421,288.07 317.754,286.736 318.5,285.5C 320.41,284.288 320.744,284.621 319.5,286.5C 320.567,288.559 321.9,290.392 323.5,292C 322.944,292.383 322.611,292.883 322.5,293.5 Z"/></g>
<g><path style="opacity:1" fill="#283132" d="M 311.5,289.5 C 312.814,292.41 312.147,294.91 309.5,297C 309.833,297.333 310.167,297.667 310.5,298C 308.833,298.333 307.167,298.667 305.5,299C 306.598,299.77 306.598,300.603 305.5,301.5C 305.158,302.338 304.492,302.672 303.5,302.5C 300.856,302.16 298.523,302.827 296.5,304.5C 294.064,303.499 294.064,302.332 296.5,301C 295.978,300.05 295.311,299.216 294.5,298.5C 296.183,296.486 298.183,294.82 300.5,293.5C 301.192,294.025 301.692,294.692 302,295.5C 302.785,293.751 303.618,292.084 304.5,290.5C 306.861,290.326 309.194,289.993 311.5,289.5 Z"/></g>
<g><path style="opacity:1" fill="#3c4446" d="M 304.5,290.5 C 303.618,292.084 302.785,293.751 302,295.5C 301.692,294.692 301.192,294.025 300.5,293.5C 298.183,294.82 296.183,296.486 294.5,298.5C 295.311,299.216 295.978,300.05 296.5,301C 294.064,302.332 294.064,303.499 296.5,304.5C 298.523,302.827 300.856,302.16 303.5,302.5C 299.838,304.655 295.838,306.322 291.5,307.5C 292.234,306.292 292.567,304.959 292.5,303.5C 288.267,303.668 287.267,302.335 289.5,299.5C 289.043,298.702 288.376,298.369 287.5,298.5C 292.747,295.077 298.413,292.411 304.5,290.5 Z"/></g>
<g><path style="opacity:0.463" fill="#7b7c7f" d="M 270.5,301.5 C 265.766,303.145 260.766,303.811 255.5,303.5C 260.306,302.407 265.306,301.741 270.5,301.5 Z"/></g>
<g><path style="opacity:1" fill="#343c3e" d="M 287.5,298.5 C 288.376,298.369 289.043,298.702 289.5,299.5C 287.267,302.335 288.267,303.668 292.5,303.5C 292.567,304.959 292.234,306.292 291.5,307.5C 283.393,310.13 275.06,311.797 266.5,312.5C 266.611,311.883 266.944,311.383 267.5,311C 264.363,310.399 261.363,309.399 258.5,308C 260.441,307.257 262.274,307.424 264,308.5C 264.617,307.551 264.451,306.718 263.5,306C 264.5,305.667 265.5,305.333 266.5,305C 262.53,305.326 258.53,305.326 254.5,305C 255.056,304.617 255.389,304.117 255.5,303.5C 260.766,303.811 265.766,303.145 270.5,301.5C 275.911,299.764 281.578,298.764 287.5,298.5 Z"/></g>
<g><path style="opacity:0.995" fill="#394040" d="M 197.5,312.5 C 197.579,313.93 197.246,315.264 196.5,316.5C 197.63,317.622 198.297,318.956 198.5,320.5C 193.167,315.167 187.833,309.833 182.5,304.5C 184.838,303.831 187.005,303.831 189,304.5C 190.114,306.483 191.614,308.15 193.5,309.5C 195.529,308.371 195.863,308.871 194.5,311C 195.527,311.513 196.527,312.013 197.5,312.5 Z"/></g>
<g><path style="opacity:1" fill="#2a3434" d="M 188.5,296.5 C 193.152,299.486 197.152,303.153 200.5,307.5C 200.69,309.959 199.69,311.626 197.5,312.5C 196.527,312.013 195.527,311.513 194.5,311C 195.863,308.871 195.529,308.371 193.5,309.5C 191.614,308.15 190.114,306.483 189,304.5C 187.005,303.831 184.838,303.831 182.5,304.5C 182.5,303.833 182.167,303.5 181.5,303.5C 180.587,301.914 180.587,300.414 181.5,299C 180.552,298.517 179.552,298.351 178.5,298.5C 178.714,296.856 178.38,295.356 177.5,294C 178.744,293.544 179.577,294.044 180,295.5C 180.684,294.216 180.517,293.049 179.5,292C 181.641,291.116 183.307,291.616 184.5,293.5C 183.738,293.911 182.738,294.077 181.5,294C 182.833,295 182.833,296 181.5,297C 182.996,297.507 184.163,297.007 185,295.5C 186.011,296.337 187.178,296.67 188.5,296.5 Z"/></g>
<g><path style="opacity:0.208" fill="#b7b7b9" d="M 229.5,307.5 C 225.981,308.632 222.314,309.632 218.5,310.5C 218.611,309.883 218.944,309.383 219.5,309C 222.757,307.957 226.09,307.457 229.5,307.5 Z"/></g>
<g><path style="opacity:1" fill="#30383a" d="M 255.5,303.5 C 255.389,304.117 255.056,304.617 254.5,305C 258.53,305.326 262.53,305.326 266.5,305C 265.5,305.333 264.5,305.667 263.5,306C 264.451,306.718 264.617,307.551 264,308.5C 262.274,307.424 260.441,307.257 258.5,308C 261.363,309.399 264.363,310.399 267.5,311C 266.944,311.383 266.611,311.883 266.5,312.5C 261.5,313.167 256.5,313.833 251.5,314.5C 252.568,313.566 253.901,313.232 255.5,313.5C 255.427,310.05 253.594,308.717 250,309.5C 248.5,309.667 247,309.833 245.5,310C 243.887,312.277 241.72,313.777 239,314.5C 238.617,313.944 238.117,313.611 237.5,313.5C 237.657,312.127 237.49,310.793 237,309.5C 236.107,310.711 235.274,310.711 234.5,309.5C 239.682,308.224 239.682,307.557 234.5,307.5C 241.277,305.645 248.277,304.312 255.5,303.5 Z"/></g>
<g><path style="opacity:1" fill="#242e2f" d="M 229.5,307.5 C 231.167,307.5 232.833,307.5 234.5,307.5C 239.682,307.557 239.682,308.224 234.5,309.5C 235.274,310.711 236.107,310.711 237,309.5C 237.49,310.793 237.657,312.127 237.5,313.5C 235.412,314.939 233.079,315.606 230.5,315.5C 228.848,314.193 227.182,314.193 225.5,315.5C 222.198,313.021 219.032,313.355 216,316.5C 215.235,316.43 214.735,316.097 214.5,315.5C 216.587,314.415 217.92,312.749 218.5,310.5C 222.314,309.632 225.981,308.632 229.5,307.5 Z"/></g>
<g><path style="opacity:1" fill="#383f42" d="M 251.5,314.5 C 246.417,316.078 241.084,316.745 235.5,316.5C 233.585,316.784 231.919,316.451 230.5,315.5C 233.079,315.606 235.412,314.939 237.5,313.5C 238.117,313.611 238.617,313.944 239,314.5C 241.72,313.777 243.887,312.277 245.5,310C 247,309.833 248.5,309.667 250,309.5C 253.594,308.717 255.427,310.05 255.5,313.5C 253.901,313.232 252.568,313.566 251.5,314.5 Z"/></g>
<g><path style="opacity:1" fill="#2f3737" d="M 200.5,307.5 C 203.399,310.303 206.066,313.303 208.5,316.5C 206.914,316.693 205.247,317.027 203.5,317.5C 202.544,319.075 201.877,320.742 201.5,322.5C 201.167,322.5 200.833,322.5 200.5,322.5C 199.833,321.833 199.167,321.167 198.5,320.5C 198.297,318.956 197.63,317.622 196.5,316.5C 197.246,315.264 197.579,313.93 197.5,312.5C 199.69,311.626 200.69,309.959 200.5,307.5 Z"/></g>
<g><path style="opacity:0.196" fill="#93969f" d="M 218.5,310.5 C 217.92,312.749 216.587,314.415 214.5,315.5C 214.167,315.5 213.833,315.5 213.5,315.5C 214.833,313.5 216.5,311.833 218.5,310.5 Z"/></g>
<g><path style="opacity:1" fill="#5c5f62" d="M 229.5,317.5 C 225.348,319.293 221.681,321.959 218.5,325.5C 218.338,323.473 218.505,321.473 219,319.5C 220.299,319.034 221.799,319.034 223.5,319.5C 223.351,318.448 223.517,317.448 224,316.5C 225.699,317.406 227.533,317.739 229.5,317.5 Z"/></g>
<g><path style="opacity:1" fill="#273132" d="M 230.5,315.5 C 231.919,316.451 233.585,316.784 235.5,316.5C 233.735,317.461 231.735,317.795 229.5,317.5C 227.533,317.739 225.699,317.406 224,316.5C 223.517,317.448 223.351,318.448 223.5,319.5C 221.799,319.034 220.299,319.034 219,319.5C 218.505,321.473 218.338,323.473 218.5,325.5C 218.5,325.833 218.5,326.167 218.5,326.5C 218.607,328.379 218.107,328.712 217,327.5C 215.513,328.253 215.346,329.086 216.5,330C 214.833,330.667 213.167,330.667 211.5,330C 212.167,329.667 212.833,329.333 213.5,329C 210.904,327.864 208.237,327.031 205.5,326.5C 205.649,325.448 205.483,324.448 205,323.5C 204.667,323.833 204.333,324.167 204,324.5C 203.292,323.619 202.458,322.953 201.5,322.5C 201.877,320.742 202.544,319.075 203.5,317.5C 205.247,317.027 206.914,316.693 208.5,316.5C 210.437,317.706 212.104,317.373 213.5,315.5C 213.833,315.5 214.167,315.5 214.5,315.5C 214.735,316.097 215.235,316.43 216,316.5C 219.032,313.355 222.198,313.021 225.5,315.5C 227.182,314.193 228.848,314.193 230.5,315.5 Z"/></g>
<g><path style="opacity:1" fill="#394040" d="M 200.5,322.5 C 200.833,322.5 201.167,322.5 201.5,322.5C 202.458,322.953 203.292,323.619 204,324.5C 204.333,324.167 204.667,323.833 205,323.5C 205.483,324.448 205.649,325.448 205.5,326.5C 208.237,327.031 210.904,327.864 213.5,329C 212.833,329.333 212.167,329.667 211.5,330C 213.167,330.667 214.833,330.667 216.5,330C 215.346,329.086 215.513,328.253 217,327.5C 218.107,328.712 218.607,328.379 218.5,326.5C 220.5,326.5 221.5,327.5 221.5,329.5C 220.153,330.171 218.986,330.171 218,329.5C 217.015,331.164 215.849,332.83 214.5,334.5C 210.906,335.799 207.573,337.466 204.5,339.5C 206.294,337.203 208.294,335.037 210.5,333C 206.935,329.604 203.602,326.104 200.5,322.5 Z"/></g>
<g><path style="opacity:0.741" fill="#4f5454" d="M 221.5,329.5 C 223.134,330.207 224.468,331.373 225.5,333C 219.838,339.662 213.838,345.995 207.5,352C 202.706,352.895 199.706,350.895 198.5,346C 199.985,343.348 201.985,341.182 204.5,339.5C 203.454,342.127 202.12,344.627 200.5,347C 201.364,348.137 202.364,349.47 203.5,351C 204.5,351.667 205.5,351.667 206.5,351C 206.167,350.667 205.833,350.333 205.5,350C 206.191,348.933 206.691,347.766 207,346.5C 207.333,346.833 207.667,347.167 208,347.5C 209.067,346.809 210.234,346.309 211.5,346C 208.693,344.603 208.193,342.769 210,340.5C 211.688,341.325 211.855,342.325 210.5,343.5C 211.325,344.386 212.325,344.719 213.5,344.5C 213.284,342.319 214.117,340.653 216,339.5C 216.333,339.833 216.667,340.167 217,340.5C 217.518,337.977 218.852,335.977 221,334.5C 221.494,332.866 221.66,331.199 221.5,329.5 Z"/></g>
<g><path style="opacity:0.996" fill="#232e2d" d="M 221.5,329.5 C 221.66,331.199 221.494,332.866 221,334.5C 218.852,335.977 217.518,337.977 217,340.5C 216.667,340.167 216.333,339.833 216,339.5C 214.117,340.653 213.284,342.319 213.5,344.5C 212.325,344.719 211.325,344.386 210.5,343.5C 211.855,342.325 211.688,341.325 210,340.5C 208.193,342.769 208.693,344.603 211.5,346C 210.234,346.309 209.067,346.809 208,347.5C 207.667,347.167 207.333,346.833 207,346.5C 206.691,347.766 206.191,348.933 205.5,350C 205.833,350.333 206.167,350.667 206.5,351C 205.5,351.667 204.5,351.667 203.5,351C 202.364,349.47 201.364,348.137 200.5,347C 202.12,344.627 203.454,342.127 204.5,339.5C 207.573,337.466 210.906,335.799 214.5,334.5C 215.849,332.83 217.015,331.164 218,329.5C 218.986,330.171 220.153,330.171 221.5,329.5 Z"/></g>
</svg>
