<?xml version="1.0" encoding="UTF-8"?>
<!DOCTYPE svg PUBLIC "-//W3C//DTD SVG 1.1//EN" "http://www.w3.org/Graphics/SVG/1.1/DTD/svg11.dtd">
<svg xmlns="http://www.w3.org/2000/svg" version="1.1" width="625px" height="399px" style="shape-rendering:geometricPrecision; text-rendering:geometricPrecision; image-rendering:optimizeQuality; fill-rule:evenodd; clip-rule:evenodd" xmlns:xlink="http://www.w3.org/1999/xlink">
<g><path style="opacity:0.329" fill="#d5d5d5" d="M 341.5,47.5 C 326.151,42.674 310.484,41.3406 294.5,43.5C 298.689,42.4054 303.023,41.4054 307.5,40.5C 316.45,40.913 325.45,42.0796 334.5,44C 337.069,44.8984 339.402,46.065 341.5,47.5 Z"/></g>
<g><path style="opacity:0.998" fill="#040404" d="M 341.5,47.5 C 343.849,49.341 346.515,50.6743 349.5,51.5C 350.514,52.6737 351.847,53.3404 353.5,53.5C 353.973,54.9063 354.973,55.573 356.5,55.5C 362.474,61.1388 368.474,66.8055 374.5,72.5C 374.427,74.0269 375.094,75.0269 376.5,75.5C 378.916,80.6665 381.582,85.6665 384.5,90.5C 384.402,92.5529 385.069,94.2196 386.5,95.5C 386.565,98.4282 387.232,101.095 388.5,103.5C 388.5,103.833 388.5,104.167 388.5,104.5C 391.205,124.273 387.871,142.94 378.5,160.5C 375.677,163.475 373.344,166.808 371.5,170.5C 370.167,171.167 369.167,172.167 368.5,173.5C 368.167,174.5 367.5,175.167 366.5,175.5C 365.5,175.833 364.833,176.5 364.5,177.5C 364.158,178.338 363.492,178.672 362.5,178.5C 361.167,179.167 360.167,180.167 359.5,181.5C 358.711,181.783 358.044,182.283 357.5,183C 358.653,184.883 360.319,185.716 362.5,185.5C 364.849,187.341 367.515,188.674 370.5,189.5C 372.663,191.083 374.996,192.416 377.5,193.5C 379.147,195.326 381.147,196.66 383.5,197.5C 384.167,197.833 384.833,198.167 385.5,198.5C 386.167,199.833 387.167,200.833 388.5,201.5C 389.251,202.573 390.251,202.74 391.5,202C 394.371,199.297 397.038,196.464 399.5,193.5C 403.146,191.183 406.48,188.516 409.5,185.5C 411.027,185.573 412.027,184.906 412.5,183.5C 414.153,183.34 415.486,182.674 416.5,181.5C 416.842,180.662 417.508,180.328 418.5,180.5C 419.239,180.631 419.906,180.464 420.5,180C 419.922,178.583 418.922,177.75 417.5,177.5C 416.598,175.659 415.264,174.326 413.5,173.5C 413.262,171.596 412.262,170.262 410.5,169.5C 410.573,167.973 409.906,166.973 408.5,166.5C 406.146,160.424 403.812,154.424 401.5,148.5C 400.167,140.833 400.167,133.167 401.5,125.5C 402.458,123.698 403.125,121.698 403.5,119.5C 405.074,117.898 405.741,115.898 405.5,113.5C 407.008,111.819 408.008,109.819 408.5,107.5C 411.823,103.54 415.156,99.5398 418.5,95.5C 419.5,95.1667 420.167,94.5 420.5,93.5C 422.754,92.8763 424.421,91.543 425.5,89.5C 427.027,89.573 428.027,88.9063 428.5,87.5C 431.485,86.6743 434.151,85.341 436.5,83.5C 439.067,83.2785 441.401,82.6118 443.5,81.5C 452.826,80.2399 462.159,80.2399 471.5,81.5C 482.502,84.8364 492.169,90.5031 500.5,98.5C 501.124,100.754 502.457,102.421 504.5,103.5C 504.932,104.71 505.599,105.71 506.5,106.5C 507.338,106.842 507.672,107.508 507.5,108.5C 508.11,110.434 509.11,112.101 510.5,113.5C 511.434,114.568 511.768,115.901 511.5,117.5C 512.598,121.911 513.598,126.245 514.5,130.5C 514.916,139.345 513.916,148.012 511.5,156.5C 509.93,159.314 508.597,162.314 507.5,165.5C 507.672,166.492 507.338,167.158 506.5,167.5C 503.484,170.52 500.817,173.854 498.5,177.5C 498.5,178.167 498.167,178.5 497.5,178.5C 494.833,179.167 494.833,179.833 497.5,180.5C 498.492,180.328 499.158,180.662 499.5,181.5C 499.973,182.906 500.973,183.573 502.5,183.5C 503.899,184.89 505.566,185.89 507.5,186.5C 507.973,187.906 508.973,188.573 510.5,188.5C 511.539,190.531 513.205,191.864 515.5,192.5C 516.785,194.452 518.451,196.118 520.5,197.5C 521.5,199.167 522.833,200.5 524.5,201.5C 525.08,203.749 526.413,205.415 528.5,206.5C 529.759,210.025 531.759,213.025 534.5,215.5C 534.66,217.153 535.326,218.486 536.5,219.5C 537.338,219.842 537.672,220.508 537.5,221.5C 538.287,225.07 539.62,228.403 541.5,231.5C 541.5,231.833 541.5,232.167 541.5,232.5C 544.233,242.296 545.566,252.296 545.5,262.5C 541.596,269.211 535.93,271.211 528.5,268.5C 528.027,267.094 527.027,266.427 525.5,266.5C 524.06,256.79 522.226,247.124 520,237.5C 518.619,233.796 516.786,230.463 514.5,227.5C 510.808,219.781 505.474,213.447 498.5,208.5C 497.421,206.457 495.754,205.124 493.5,204.5C 492.508,204.672 491.842,204.338 491.5,203.5C 490.486,202.326 489.153,201.66 487.5,201.5C 485.847,201.34 484.514,200.674 483.5,199.5C 480.079,196.804 476.079,195.47 471.5,195.5C 467.272,193.975 462.772,193.308 458,193.5C 453.228,193.308 448.728,193.975 444.5,195.5C 438.956,195.792 433.956,197.459 429.5,200.5C 427.181,200.992 425.181,201.992 423.5,203.5C 423.5,204.167 423.167,204.5 422.5,204.5C 418.428,206.208 415.095,208.874 412.5,212.5C 412.167,213.5 411.5,214.167 410.5,214.5C 409.5,214.833 408.833,215.5 408.5,216.5C 406.481,217.538 406.147,218.872 407.5,220.5C 408.512,221.872 409.512,223.205 410.5,224.5C 411.08,226.749 412.413,228.415 414.5,229.5C 415.674,230.514 416.34,231.847 416.5,233.5C 417.263,235.368 418.263,237.035 419.5,238.5C 420.326,241.485 421.659,244.151 423.5,246.5C 424.338,246.842 424.672,247.508 424.5,248.5C 425.646,251.943 426.979,255.277 428.5,258.5C 429.053,263.806 430.386,268.806 432.5,273.5C 432.5,274.167 432.5,274.833 432.5,275.5C 433.661,284.863 433.661,294.197 432.5,303.5C 427.783,307.509 422.45,308.509 416.5,306.5C 415.164,304.99 413.997,303.323 413,301.5C 412.557,287.06 409.89,273.06 405,259.5C 403.726,256.609 402.226,253.942 400.5,251.5C 400.25,249.326 399.25,247.659 397.5,246.5C 396.662,246.158 396.328,245.492 396.5,244.5C 396.573,242.973 395.906,241.973 394.5,241.5C 394.446,239.368 393.446,238.035 391.5,237.5C 391.262,235.596 390.262,234.262 388.5,233.5C 385.812,228.812 382.145,225.145 377.5,222.5C 375.761,219.757 373.427,217.757 370.5,216.5C 369.508,216.672 368.842,216.338 368.5,215.5C 367.738,213.738 366.404,212.738 364.5,212.5C 362.664,210.412 360.331,209.079 357.5,208.5C 354.021,206.597 350.354,204.93 346.5,203.5C 346.167,203.5 345.833,203.5 345.5,203.5C 342.854,201.747 339.854,200.747 336.5,200.5C 334.379,200.675 332.379,200.341 330.5,199.5C 316.085,195.619 301.751,195.952 287.5,200.5C 283.838,200.723 280.505,201.723 277.5,203.5C 273.407,204.382 269.74,206.049 266.5,208.5C 263.669,209.079 261.336,210.412 259.5,212.5C 257.147,213.34 255.147,214.674 253.5,216.5C 253.5,217.167 253.167,217.5 252.5,217.5C 250.251,218.08 248.585,219.413 247.5,221.5C 247.5,222.167 247.167,222.5 246.5,222.5C 241.855,225.145 238.188,228.812 235.5,233.5C 233.738,234.262 232.738,235.596 232.5,237.5C 232.5,238.167 232.167,238.5 231.5,238.5C 229.674,240.147 228.34,242.147 227.5,244.5C 225.412,246.336 224.079,248.669 223.5,251.5C 219.62,257.616 216.787,264.282 215,271.5C 213.55,282.64 211.717,293.64 209.5,304.5C 208.5,304.833 207.833,305.5 207.5,306.5C 203.178,307.726 198.845,307.726 194.5,306.5C 193.833,305.167 192.833,304.167 191.5,303.5C 190.374,293.865 190.374,284.198 191.5,274.5C 193.34,269.425 194.674,264.091 195.5,258.5C 196.486,256.574 197.486,254.574 198.5,252.5C 200.074,250.898 200.741,248.898 200.5,246.5C 202.341,244.151 203.674,241.485 204.5,238.5C 206.083,236.337 207.416,234.004 208.5,231.5C 210.547,229.45 212.214,227.117 213.5,224.5C 214.974,223.564 215.974,222.23 216.5,220.5C 217.853,218.872 217.519,217.538 215.5,216.5C 215.144,214.81 214.144,213.81 212.5,213.5C 209.279,209.224 205.279,205.891 200.5,203.5C 200.167,203.5 199.833,203.5 199.5,203.5C 198.341,201.75 196.674,200.75 194.5,200.5C 193.209,200.737 192.209,200.404 191.5,199.5C 189.208,197.733 186.542,196.733 183.5,196.5C 181.901,196.768 180.568,196.434 179.5,195.5C 165.938,192.14 152.605,193.307 139.5,199C 138.944,199.383 138.611,199.883 138.5,200.5C 136.03,200.654 134.03,201.654 132.5,203.5C 132.158,204.338 131.492,204.672 130.5,204.5C 128.246,205.124 126.579,206.457 125.5,208.5C 121.812,210.188 119.145,212.855 117.5,216.5C 117.5,217.167 117.167,217.5 116.5,217.5C 113.185,220.125 110.851,223.458 109.5,227.5C 106.149,231.882 104.149,236.882 103.5,242.5C 101.188,249.861 99.8542,257.527 99.5,265.5C 98.7377,267.262 97.4044,268.262 95.5,268.5C 91.9359,269.423 88.2693,269.756 84.5,269.5C 82.4707,267.142 80.4707,264.808 78.5,262.5C 78.5295,251.963 79.8628,241.63 82.5,231.5C 84.0198,229.11 85.0198,226.443 85.5,223.5C 87.1042,222.713 87.7709,221.38 87.5,219.5C 90.4143,215.342 93.0809,211.009 95.5,206.5C 98.8615,204.105 101.528,201.105 103.5,197.5C 107.105,195.528 110.105,192.861 112.5,189.5C 115.68,187.745 118.68,185.745 121.5,183.5C 123.027,183.573 124.027,182.906 124.5,181.5C 124.842,180.662 125.508,180.328 126.5,180.5C 129.015,179.14 128.682,178.14 125.5,177.5C 125.167,176.5 124.5,175.833 123.5,175.5C 121.878,172.545 119.878,169.878 117.5,167.5C 110.748,154.327 108.081,140.327 109.5,125.5C 110.738,123.786 111.405,121.786 111.5,119.5C 111.557,118.391 111.89,117.391 112.5,116.5C 114.241,114.605 115.241,112.272 115.5,109.5C 116.906,109.027 117.573,108.027 117.5,106.5C 119.853,104.14 121.853,101.473 123.5,98.5C 128.524,94.4697 133.524,90.4697 138.5,86.5C 142.998,85.005 147.332,83.3383 151.5,81.5C 151.833,81.5 152.167,81.5 152.5,81.5C 165.866,79.295 178.866,80.6284 191.5,85.5C 192.514,86.6737 193.847,87.3404 195.5,87.5C 195.973,88.9063 196.973,89.573 198.5,89.5C 198.973,90.9063 199.973,91.573 201.5,91.5C 201.833,92.5 202.5,93.1667 203.5,93.5C 205.833,96.5 208.5,99.1667 211.5,101.5C 212.34,103.853 213.674,105.853 215.5,107.5C 216.326,110.485 217.659,113.151 219.5,115.5C 219.975,119.084 220.975,122.417 222.5,125.5C 223.833,133.167 223.833,140.833 222.5,148.5C 220.928,151.215 219.928,154.215 219.5,157.5C 217.796,160.256 216.463,163.256 215.5,166.5C 214.094,166.973 213.427,167.973 213.5,169.5C 211.738,170.262 210.738,171.596 210.5,173.5C 210.5,174.167 210.167,174.5 209.5,174.5C 208.167,175.167 207.167,176.167 206.5,177.5C 201.59,177.23 201.257,178.23 205.5,180.5C 206.492,180.328 207.158,180.662 207.5,181.5C 209.336,183.588 211.669,184.921 214.5,185.5C 216.55,187.547 218.883,189.214 221.5,190.5C 225.167,194.833 229.167,198.833 233.5,202.5C 233.833,202.5 234.167,202.5 234.5,202.5C 236.389,201.396 238.055,200.063 239.5,198.5C 242.117,197.214 244.45,195.547 246.5,193.5C 249.004,192.416 251.337,191.083 253.5,189.5C 256.485,188.674 259.151,187.341 261.5,185.5C 263.423,185.205 265.09,184.372 266.5,183C 265.956,182.283 265.289,181.783 264.5,181.5C 263.415,179.413 261.749,178.08 259.5,177.5C 259.043,175.227 257.71,173.894 255.5,173.5C 252.136,169.143 248.802,164.809 245.5,160.5C 243.674,155.516 241.341,150.849 238.5,146.5C 237.274,140.202 236.107,133.868 235,127.5C 234.459,119.818 234.626,112.152 235.5,104.5C 235.5,104.167 235.5,103.833 235.5,103.5C 236.531,101.039 237.198,98.3725 237.5,95.5C 238.931,94.2196 239.598,92.5529 239.5,90.5C 242.721,84.3989 246.221,78.3989 250,72.5C 256.429,65.5653 263.262,59.232 270.5,53.5C 272.153,53.3404 273.486,52.6737 274.5,51.5C 277.437,50.5282 280.103,49.1948 282.5,47.5C 285.152,47.5905 287.485,46.9238 289.5,45.5C 291.306,44.9759 292.972,44.3092 294.5,43.5C 310.484,41.3406 326.151,42.674 341.5,47.5 Z M 320.5,65.5 C 320.833,65.5 321.167,65.5 321.5,65.5C 325.216,67.4053 329.216,68.7387 333.5,69.5C 333.833,69.5 334.167,69.5 334.5,69.5C 336.336,71.588 338.669,72.9213 341.5,73.5C 342.708,76.0442 344.708,77.3775 347.5,77.5C 347.5,78.1667 347.833,78.5 348.5,78.5C 348.833,80.8333 350.167,82.1667 352.5,82.5C 352.5,83.1667 352.833,83.5 353.5,83.5C 353.738,85.4044 354.738,86.7377 356.5,87.5C 357.169,90.8489 358.836,93.5156 361.5,95.5C 362.417,100.205 364.083,104.539 366.5,108.5C 366.5,115.5 366.5,122.5 366.5,129.5C 364.459,133.952 362.792,138.618 361.5,143.5C 360.662,143.842 360.328,144.508 360.5,145.5C 358.273,146.401 357.273,148.067 357.5,150.5C 354.195,154.141 350.862,157.808 347.5,161.5C 344.883,162.786 342.55,164.453 340.5,166.5C 326.553,173.286 311.886,175.286 296.5,172.5C 295.791,171.596 294.791,171.263 293.5,171.5C 291.388,169.229 288.721,167.896 285.5,167.5C 284.833,167.167 284.167,166.833 283.5,166.5C 283.027,165.094 282.027,164.427 280.5,164.5C 279.738,162.738 278.404,161.738 276.5,161.5C 274.833,159.167 272.833,157.167 270.5,155.5C 269.92,153.251 268.587,151.585 266.5,150.5C 266.727,148.067 265.727,146.401 263.5,145.5C 263.672,144.508 263.338,143.842 262.5,143.5C 262.598,141.447 261.931,139.78 260.5,138.5C 260.072,135.215 259.072,132.215 257.5,129.5C 257.5,128.5 257.5,127.5 257.5,126.5C 257.334,121.156 257.501,115.823 258,110.5C 259.81,105.571 261.31,100.571 262.5,95.5C 265.164,93.5156 266.831,90.8489 267.5,87.5C 269.587,86.4154 270.92,84.7488 271.5,82.5C 273.833,82.1667 275.167,80.8333 275.5,78.5C 276.167,78.5 276.5,78.1667 276.5,77.5C 279.292,77.3775 281.292,76.0442 282.5,73.5C 285.331,72.9213 287.664,71.588 289.5,69.5C 293.951,68.8509 298.284,67.6842 302.5,66C 308.491,65.5005 314.491,65.3338 320.5,65.5 Z M 173.5,103.5 C 174.919,104.451 176.585,104.784 178.5,104.5C 179.659,106.25 181.326,107.25 183.5,107.5C 183.973,108.906 184.973,109.573 186.5,109.5C 187.262,111.262 188.596,112.262 190.5,112.5C 190.5,113.167 190.833,113.5 191.5,113.5C 194.773,119.048 197.773,124.714 200.5,130.5C 200.663,135.547 200.329,140.547 199.5,145.5C 197.375,148.088 196.042,151.088 195.5,154.5C 193.453,156.55 191.786,158.883 190.5,161.5C 188.596,161.738 187.262,162.738 186.5,164.5C 184.067,164.273 182.401,165.273 181.5,167.5C 176.272,168.389 171.272,169.722 166.5,171.5C 166.167,171.5 165.833,171.5 165.5,171.5C 160.728,169.722 155.728,168.389 150.5,167.5C 149.198,165.178 147.198,163.845 144.5,163.5C 143.167,161.5 141.5,159.833 139.5,158.5C 139.573,156.973 138.906,155.973 137.5,155.5C 137.573,153.973 136.906,152.973 135.5,152.5C 135.5,152.167 135.5,151.833 135.5,151.5C 135.34,149.847 134.674,148.514 133.5,147.5C 131.741,138.614 132.407,129.947 135.5,121.5C 137.326,119.853 138.66,117.853 139.5,115.5C 140.167,115.5 140.5,115.167 140.5,114.5C 144.912,110.746 149.578,107.413 154.5,104.5C 160.797,103.68 167.131,103.347 173.5,103.5 Z M 465.5,103.5 C 466.568,104.434 467.901,104.768 469.5,104.5C 472.989,107.08 476.656,109.413 480.5,111.5C 481.5,113.167 482.833,114.5 484.5,115.5C 485.34,117.853 486.674,119.853 488.5,121.5C 492.446,131.824 492.446,142.157 488.5,152.5C 487.094,152.973 486.427,153.973 486.5,155.5C 485.094,155.973 484.427,156.973 484.5,158.5C 481.044,160.783 477.71,163.283 474.5,166C 469.168,168.157 463.834,169.991 458.5,171.5C 458.167,171.5 457.833,171.5 457.5,171.5C 452.728,169.722 447.728,168.389 442.5,167.5C 441.599,165.273 439.933,164.273 437.5,164.5C 436.738,162.738 435.404,161.738 433.5,161.5C 432.92,159.251 431.587,157.585 429.5,156.5C 429.672,155.508 429.338,154.842 428.5,154.5C 428.771,152.62 428.104,151.287 426.5,150.5C 426.598,148.447 425.931,146.78 424.5,145.5C 423.671,140.547 423.337,135.547 423.5,130.5C 426.257,126.584 428.257,122.25 429.5,117.5C 431.262,116.738 432.262,115.404 432.5,113.5C 433.167,113.5 433.5,113.167 433.5,112.5C 435.404,112.262 436.738,111.262 437.5,109.5C 440.511,108.331 443.178,106.664 445.5,104.5C 452.137,103.724 458.804,103.391 465.5,103.5 Z"/></g>
<g><path style="opacity:0.03" fill="#efefef" d="M 294.5,43.5 C 292.972,44.3092 291.306,44.9759 289.5,45.5C 288.833,45.5 288.167,45.5 287.5,45.5C 289.438,43.8372 291.772,43.1706 294.5,43.5 Z"/></g>
<g><path style="opacity:0.847" fill="#858585" d="M 287.5,45.5 C 288.167,45.5 288.833,45.5 289.5,45.5C 287.485,46.9238 285.152,47.5905 282.5,47.5C 283.78,46.0687 285.447,45.4021 287.5,45.5 Z"/></g>
<g><path style="opacity:0.024" fill="#d9d9d9" d="M 282.5,47.5 C 280.103,49.1948 277.437,50.5282 274.5,51.5C 276.315,48.5926 278.981,47.2593 282.5,47.5 Z"/></g>
<g><path style="opacity:0.024" fill="#dedede" d="M 341.5,47.5 C 345.019,47.2593 347.685,48.5926 349.5,51.5C 346.515,50.6743 343.849,49.341 341.5,47.5 Z"/></g>
<g><path style="opacity:0.086" fill="#d5d5d5" d="M 349.5,51.5 C 351.38,51.2291 352.713,51.8958 353.5,53.5C 351.847,53.3404 350.514,52.6737 349.5,51.5 Z"/></g>
<g><path style="opacity:0.365" fill="#d3d3d3" d="M 274.5,51.5 C 273.486,52.6737 272.153,53.3404 270.5,53.5C 271.287,51.8958 272.62,51.2291 274.5,51.5 Z"/></g>
<g><path style="opacity:0.016" fill="#e2e2e2" d="M 353.5,53.5 C 355.027,53.427 356.027,54.0937 356.5,55.5C 354.973,55.573 353.973,54.9063 353.5,53.5 Z"/></g>
<g><path style="opacity:0.012" fill="#d6d6d6" d="M 356.5,55.5 C 361.366,58.0191 365.699,61.3524 369.5,65.5C 371.605,67.5916 373.272,69.9249 374.5,72.5C 368.474,66.8055 362.474,61.1388 356.5,55.5 Z"/></g>
<g><path style="opacity:0.122" fill="#d3d3d3" d="M 320.5,65.5 C 314.491,65.3338 308.491,65.5005 302.5,66C 298.284,67.6842 293.951,68.8509 289.5,69.5C 293.277,67.7099 297.277,66.2099 301.5,65C 308.014,64.18 314.347,64.3467 320.5,65.5 Z"/></g>
<g><path style="opacity:0.037" fill="#dcdcdc" d="M 321.5,65.5 C 325.942,65.7315 329.942,67.0648 333.5,69.5C 329.216,68.7387 325.216,67.4053 321.5,65.5 Z"/></g>
<g><path style="opacity:0.18" fill="#e0e0e0" d="M 289.5,69.5 C 287.664,71.588 285.331,72.9213 282.5,73.5C 284.336,71.412 286.669,70.0787 289.5,69.5 Z"/></g>
<g><path style="opacity:0.145" fill="#d8d8d8" d="M 270.5,53.5 C 263.262,59.232 256.429,65.5653 250,72.5C 246.221,78.3989 242.721,84.3989 239.5,90.5C 245.143,74.194 255.477,61.8606 270.5,53.5 Z"/></g>
<g><path style="opacity:0.129" fill="#d9d9d9" d="M 334.5,69.5 C 337.331,70.0787 339.664,71.412 341.5,73.5C 338.669,72.9213 336.336,71.588 334.5,69.5 Z"/></g>
<g><path style="opacity:0.047" fill="#dbdbdb" d="M 374.5,72.5 C 375.906,72.9731 376.573,73.9731 376.5,75.5C 375.094,75.0269 374.427,74.0269 374.5,72.5 Z"/></g>
<g><path style="opacity:0.029" fill="#e5e5e5" d="M 282.5,73.5 C 281.292,76.0442 279.292,77.3775 276.5,77.5C 278.147,75.6736 280.147,74.3403 282.5,73.5 Z"/></g>
<g><path style="opacity:0.029" fill="#e5e5e5" d="M 341.5,73.5 C 343.777,74.4486 345.777,75.7819 347.5,77.5C 344.708,77.3775 342.708,76.0442 341.5,73.5 Z"/></g>
<g><path style="opacity:0.292" fill="#d2d2d2" d="M 191.5,85.5 C 178.866,80.6284 165.866,79.295 152.5,81.5C 152.611,80.8826 152.944,80.3826 153.5,80C 157.689,79.6645 161.856,79.1645 166,78.5C 170.144,79.1645 174.311,79.6645 178.5,80C 183.39,80.79 187.724,82.6234 191.5,85.5 Z"/></g>
<g><path style="opacity:0.008" fill="#ededed" d="M 348.5,78.5 C 350.167,79.5 351.5,80.8333 352.5,82.5C 350.167,82.1667 348.833,80.8333 348.5,78.5 Z"/></g>
<g><path style="opacity:0.022" fill="#dddddd" d="M 376.5,75.5 C 379.471,78.7537 381.971,82.4204 384,86.5C 384.49,87.7932 384.657,89.1266 384.5,90.5C 381.582,85.6665 378.916,80.6665 376.5,75.5 Z"/></g>
<g><path style="opacity:0.285" fill="#c2c2c2" d="M 471.5,81.5 C 462.159,80.2399 452.826,80.2399 443.5,81.5C 447.462,80.0301 451.628,79.0301 456,78.5C 460.547,79.0987 465.38,79.5987 470.5,80C 471.056,80.3826 471.389,80.8826 471.5,81.5 Z"/></g>
<g><path style="opacity:0.004" fill="#f1f1f1" d="M 275.5,78.5 C 275.167,80.8333 273.833,82.1667 271.5,82.5C 272.5,80.8333 273.833,79.5 275.5,78.5 Z"/></g>
<g><path style="opacity:0.173" fill="#d1d1d1" d="M 443.5,81.5 C 441.401,82.6118 439.067,83.2785 436.5,83.5C 438.438,81.8372 440.772,81.1706 443.5,81.5 Z"/></g>
<g><path style="opacity:0.027" fill="#e5e5e5" d="M 151.5,81.5 C 147.332,83.3383 142.998,85.005 138.5,86.5C 140.7,84.3596 143.367,82.8596 146.5,82C 148.134,81.5065 149.801,81.3398 151.5,81.5 Z"/></g>
<g><path style="opacity:0.086" fill="#dedede" d="M 436.5,83.5 C 434.151,85.341 431.485,86.6743 428.5,87.5C 430.579,85.127 433.246,83.7936 436.5,83.5 Z"/></g>
<g><path style="opacity:0.043" fill="#d7d7d7" d="M 271.5,82.5 C 270.92,84.7488 269.587,86.4154 267.5,87.5C 268.08,85.2512 269.413,83.5846 271.5,82.5 Z"/></g>
<g><path style="opacity:0.043" fill="#d7d7d7" d="M 353.5,83.5 C 355.262,84.2623 356.262,85.5956 356.5,87.5C 354.738,86.7377 353.738,85.4044 353.5,83.5 Z"/></g>
<g><path style="opacity:0.102" fill="#dfdfdf" d="M 191.5,85.5 C 193.38,85.2291 194.713,85.8958 195.5,87.5C 193.847,87.3404 192.514,86.6737 191.5,85.5 Z"/></g>
<g><path style="opacity:0.086" fill="#d2d2d2" d="M 195.5,87.5 C 197.027,87.427 198.027,88.0937 198.5,89.5C 196.973,89.573 195.973,88.9063 195.5,87.5 Z"/></g>
<g><path style="opacity:0.455" fill="#b7b7b7" d="M 428.5,87.5 C 428.027,88.9063 427.027,89.573 425.5,89.5C 425.973,88.0937 426.973,87.427 428.5,87.5 Z"/></g>
<g><path style="opacity:0.016" fill="#dcdcdc" d="M 198.5,89.5 C 200.027,89.427 201.027,90.0937 201.5,91.5C 199.973,91.573 198.973,90.9063 198.5,89.5 Z"/></g>
<g><path style="opacity:0.035" fill="#e7e7e7" d="M 267.5,87.5 C 266.831,90.8489 265.164,93.5156 262.5,95.5C 263.383,92.2957 265.05,89.6291 267.5,87.5 Z"/></g>
<g><path style="opacity:0.033" fill="#e5e5e5" d="M 356.5,87.5 C 358.95,89.6291 360.617,92.2957 361.5,95.5C 358.836,93.5156 357.169,90.8489 356.5,87.5 Z"/></g>
<g><path style="opacity:0.286" fill="#d4d4d4" d="M 138.5,86.5 C 133.524,90.4697 128.524,94.4697 123.5,98.5C 123.859,96.629 124.859,95.129 126.5,94C 130.052,90.7272 134.052,88.2272 138.5,86.5 Z"/></g>
<g><path style="opacity:0.522" fill="#bdbdbd" d="M 425.5,89.5 C 424.421,91.543 422.754,92.8763 420.5,93.5C 421.539,91.4689 423.205,90.1355 425.5,89.5 Z"/></g>
<g><path style="opacity:0.016" fill="#ececec" d="M 201.5,91.5 C 202.833,91.5 203.5,92.1667 203.5,93.5C 202.5,93.1667 201.833,92.5 201.5,91.5 Z"/></g>
<g><path style="opacity:0.006" fill="#e8e8e8" d="M 239.5,90.5 C 239.598,92.5529 238.931,94.2196 237.5,95.5C 237.402,93.4471 238.069,91.7804 239.5,90.5 Z"/></g>
<g><path style="opacity:0.016" fill="#e7e7e7" d="M 384.5,90.5 C 385.931,91.7804 386.598,93.4471 386.5,95.5C 385.069,94.2196 384.402,92.5529 384.5,90.5 Z"/></g>
<g><path style="opacity:0.035" fill="#d5d5d5" d="M 203.5,93.5 C 207.167,95.1667 209.833,97.8333 211.5,101.5C 208.5,99.1667 205.833,96.5 203.5,93.5 Z"/></g>
<g><path style="opacity:0.294" fill="#c9c9c9" d="M 420.5,93.5 C 420.167,94.5 419.5,95.1667 418.5,95.5C 418.5,94.1667 419.167,93.5 420.5,93.5 Z"/></g>
<g><path style="opacity:0.165" fill="#d9d9d9" d="M 471.5,81.5 C 480.796,83.1464 489.129,86.9797 496.5,93C 498.464,94.451 499.797,96.2843 500.5,98.5C 492.169,90.5031 482.502,84.8364 471.5,81.5 Z"/></g>
<g><path style="opacity:0.102" fill="#c0c0c0" d="M 361.5,95.5 C 364.129,99.377 365.796,103.71 366.5,108.5C 364.083,104.539 362.417,100.205 361.5,95.5 Z"/></g>
<g><path style="opacity:0.037" fill="#e9e9e9" d="M 237.5,95.5 C 237.198,98.3725 236.531,101.039 235.5,103.5C 235.111,100.447 235.777,97.78 237.5,95.5 Z"/></g>
<g><path style="opacity:0.039" fill="#e6e6e6" d="M 386.5,95.5 C 388.223,97.78 388.889,100.447 388.5,103.5C 387.232,101.095 386.565,98.4282 386.5,95.5 Z"/></g>
<g><path style="opacity:0.243" fill="#c0c0c0" d="M 262.5,95.5 C 261.31,100.571 259.81,105.571 258,110.5C 257.501,115.823 257.334,121.156 257.5,126.5C 255.089,115.541 256.755,105.208 262.5,95.5 Z"/></g>
<g><path style="opacity:0.004" fill="#d9d9d9" d="M 500.5,98.5 C 502.531,99.5387 503.864,101.205 504.5,103.5C 502.457,102.421 501.124,100.754 500.5,98.5 Z"/></g>
<g><path style="opacity:0.18" fill="#d7d7d7" d="M 123.5,98.5 C 121.853,101.473 119.853,104.14 117.5,106.5C 118.37,102.966 120.37,100.299 123.5,98.5 Z"/></g>
<g><path style="opacity:0.008" fill="#d8d8d8" d="M 173.5,103.5 C 167.131,103.347 160.797,103.68 154.5,104.5C 157.865,102.961 161.531,102.294 165.5,102.5C 168.355,102.503 171.022,102.836 173.5,103.5 Z"/></g>
<g><path style="opacity:0.088" fill="#cdcdcd" d="M 465.5,103.5 C 458.804,103.391 452.137,103.724 445.5,104.5C 449.034,102.952 452.867,102.286 457,102.5C 460.021,102.502 462.854,102.836 465.5,103.5 Z"/></g>
<g><path style="opacity:0.024" fill="#efefef" d="M 504.5,103.5 C 506.048,103.821 506.715,104.821 506.5,106.5C 505.599,105.71 504.932,104.71 504.5,103.5 Z"/></g>
<g><path style="opacity:0.082" fill="#d0d0d0" d="M 211.5,101.5 C 213.822,102.802 215.155,104.802 215.5,107.5C 213.674,105.853 212.34,103.853 211.5,101.5 Z"/></g>
<g><path style="opacity:0.075" fill="#dcdcdc" d="M 154.5,104.5 C 149.578,107.413 144.912,110.746 140.5,114.5C 143.731,109.285 148.397,105.952 154.5,104.5 Z"/></g>
<g><path style="opacity:0.224" fill="#c9c9c9" d="M 178.5,104.5 C 180.674,104.75 182.341,105.75 183.5,107.5C 181.326,107.25 179.659,106.25 178.5,104.5 Z"/></g>
<g><path style="opacity:0.227" fill="#d7d7d7" d="M 445.5,104.5 C 443.178,106.664 440.511,108.331 437.5,109.5C 439.484,106.836 442.151,105.169 445.5,104.5 Z"/></g>
<g><path style="opacity:0.282" fill="#c7c7c7" d="M 418.5,95.5 C 415.156,99.5398 411.823,103.54 408.5,107.5C 409.343,104.484 410.843,101.817 413,99.5C 414.451,97.5359 416.284,96.2026 418.5,95.5 Z"/></g>
<g><path style="opacity:0.071" fill="#dddddd" d="M 469.5,104.5 C 473.976,105.571 477.643,107.904 480.5,111.5C 476.656,109.413 472.989,107.08 469.5,104.5 Z"/></g>
<g><path style="opacity:0.235" fill="#d3d3d3" d="M 117.5,106.5 C 117.573,108.027 116.906,109.027 115.5,109.5C 115.427,107.973 116.094,106.973 117.5,106.5 Z"/></g>
<g><path style="opacity:0.016" fill="#f0f0f0" d="M 183.5,107.5 C 185.027,107.427 186.027,108.094 186.5,109.5C 184.973,109.573 183.973,108.906 183.5,107.5 Z"/></g>
<g><path style="opacity:0.514" fill="#cecece" d="M 186.5,109.5 C 188.404,109.738 189.738,110.738 190.5,112.5C 188.596,112.262 187.262,111.262 186.5,109.5 Z"/></g>
<g><path style="opacity:0.027" fill="#dbdbdb" d="M 215.5,107.5 C 218.149,109.412 219.482,112.079 219.5,115.5C 217.659,113.151 216.326,110.485 215.5,107.5 Z"/></g>
<g><path style="opacity:0.063" fill="#e3e3e3" d="M 437.5,109.5 C 436.738,111.262 435.404,112.262 433.5,112.5C 434.262,110.738 435.596,109.738 437.5,109.5 Z"/></g>
<g><path style="opacity:0.282" fill="#d4d4d4" d="M 507.5,108.5 C 509.727,109.401 510.727,111.067 510.5,113.5C 509.11,112.101 508.11,110.434 507.5,108.5 Z"/></g>
<g><path style="opacity:0.129" fill="#c9c9c9" d="M 408.5,107.5 C 408.008,109.819 407.008,111.819 405.5,113.5C 405.461,110.911 406.461,108.911 408.5,107.5 Z"/></g>
<g><path style="opacity:0.525" fill="#bababa" d="M 480.5,111.5 C 482.833,111.833 484.167,113.167 484.5,115.5C 482.833,114.5 481.5,113.167 480.5,111.5 Z"/></g>
<g><path style="opacity:0.741" fill="#a1a1a1" d="M 115.5,109.5 C 115.241,112.272 114.241,114.605 112.5,116.5C 112.552,113.654 113.552,111.32 115.5,109.5 Z"/></g>
<g><path style="opacity:0.098" fill="#cdcdcd" d="M 235.5,104.5 C 234.626,112.152 234.459,119.818 235,127.5C 236.107,133.868 237.274,140.202 238.5,146.5C 237.442,145.4 236.608,144.066 236,142.5C 233.066,129.704 232.899,117.037 235.5,104.5 Z"/></g>
<g><path style="opacity:0.082" fill="#dadada" d="M 432.5,113.5 C 432.262,115.404 431.262,116.738 429.5,117.5C 429.738,115.596 430.738,114.262 432.5,113.5 Z"/></g>
<g><path style="opacity:0.016" fill="#dfdfdf" d="M 139.5,115.5 C 138.66,117.853 137.326,119.853 135.5,121.5C 135.845,118.802 137.178,116.802 139.5,115.5 Z"/></g>
<g><path style="opacity:0.808" fill="#6c6c6c" d="M 405.5,113.5 C 405.741,115.898 405.074,117.898 403.5,119.5C 403.5,118.833 403.5,118.167 403.5,117.5C 403.66,115.847 404.326,114.514 405.5,113.5 Z"/></g>
<g><path style="opacity:0.18" fill="#d7d7d7" d="M 484.5,115.5 C 486.822,116.802 488.155,118.802 488.5,121.5C 486.674,119.853 485.34,117.853 484.5,115.5 Z"/></g>
<g><path style="opacity:0.063" fill="#cecece" d="M 429.5,117.5 C 428.257,122.25 426.257,126.584 423.5,130.5C 424.18,125.478 426.18,121.144 429.5,117.5 Z"/></g>
<g><path style="opacity:0.302" fill="#b4b4b4" d="M 219.5,115.5 C 221.68,118.381 222.68,121.714 222.5,125.5C 220.975,122.417 219.975,119.084 219.5,115.5 Z"/></g>
<g><path style="opacity:0.061" fill="#f1f1f1" d="M 111.5,119.5 C 111.405,121.786 110.738,123.786 109.5,125.5C 109.259,123.102 109.926,121.102 111.5,119.5 Z"/></g>
<g><path style="opacity:0.592" fill="#959595" d="M 511.5,117.5 C 513.585,119.684 514.585,122.351 514.5,125.5C 514.5,127.167 514.5,128.833 514.5,130.5C 513.598,126.245 512.598,121.911 511.5,117.5 Z"/></g>
<g><path style="opacity:0.251" fill="#cecece" d="M 191.5,113.5 C 196.314,118.123 199.314,123.79 200.5,130.5C 197.773,124.714 194.773,119.048 191.5,113.5 Z"/></g>
<g><path style="opacity:0.2" fill="#cfcfcf" d="M 403.5,117.5 C 403.5,118.167 403.5,118.833 403.5,119.5C 403.125,121.698 402.458,123.698 401.5,125.5C 401.111,122.447 401.777,119.78 403.5,117.5 Z"/></g>
<g><path style="opacity:0.118" fill="#c3c3c3" d="M 257.5,129.5 C 259.072,132.215 260.072,135.215 260.5,138.5C 258.528,135.916 257.528,132.916 257.5,129.5 Z"/></g>
<g><path style="opacity:0.024" fill="#d0d0d0" d="M 135.5,121.5 C 132.407,129.947 131.741,138.614 133.5,147.5C 132.71,146.391 132.21,145.058 132,143.5C 131.333,138.5 131.333,133.5 132,128.5C 132.67,125.826 133.837,123.493 135.5,121.5 Z"/></g>
<g><path style="opacity:0.588" fill="#9d9d9d" d="M 366.5,129.5 C 366.345,134.831 364.679,139.498 361.5,143.5C 362.792,138.618 364.459,133.952 366.5,129.5 Z"/></g>
<g><path style="opacity:0.098" fill="#cacaca" d="M 488.5,121.5 C 491.729,125.702 493.062,130.536 492.5,136C 492.863,142.047 491.529,147.547 488.5,152.5C 492.446,142.157 492.446,131.824 488.5,121.5 Z"/></g>
<g><path style="opacity:0.051" fill="#e2e2e2" d="M 260.5,138.5 C 261.931,139.78 262.598,141.447 262.5,143.5C 261.069,142.22 260.402,140.553 260.5,138.5 Z"/></g>
<g><path style="opacity:0.188" fill="#cccccc" d="M 388.5,104.5 C 392.044,120.821 390.544,136.821 384,152.5C 382.391,155.407 380.558,158.073 378.5,160.5C 387.871,142.94 391.205,124.273 388.5,104.5 Z"/></g>
<g><path style="opacity:0.224" fill="#d9d9d9" d="M 263.5,145.5 C 265.727,146.401 266.727,148.067 266.5,150.5C 264.75,149.341 263.75,147.674 263.5,145.5 Z"/></g>
<g><path style="opacity:0.216" fill="#d9d9d9" d="M 360.5,145.5 C 360.25,147.674 359.25,149.341 357.5,150.5C 357.273,148.067 358.273,146.401 360.5,145.5 Z"/></g>
<g><path style="opacity:0.084" fill="#eaeaea" d="M 424.5,145.5 C 425.931,146.78 426.598,148.447 426.5,150.5C 425.069,149.22 424.402,147.553 424.5,145.5 Z"/></g>
<g><path style="opacity:0.188" fill="#d5d5d5" d="M 109.5,125.5 C 108.081,140.327 110.748,154.327 117.5,167.5C 116.115,166.426 114.949,165.093 114,163.5C 108.578,151.187 107.078,138.52 109.5,125.5 Z"/></g>
<g><path style="opacity:0.173" fill="#e1e1e1" d="M 133.5,147.5 C 134.674,148.514 135.34,149.847 135.5,151.5C 133.896,150.713 133.229,149.38 133.5,147.5 Z"/></g>
<g><path style="opacity:0.016" fill="#f2f2f2" d="M 199.5,145.5 C 198.958,148.912 197.625,151.912 195.5,154.5C 196.042,151.088 197.375,148.088 199.5,145.5 Z"/></g>
<g><path style="opacity:0.008" fill="#cccccc" d="M 222.5,148.5 C 222.862,152.081 221.862,155.081 219.5,157.5C 219.928,154.215 220.928,151.215 222.5,148.5 Z"/></g>
<g><path style="opacity:0.037" fill="#cdcdcd" d="M 401.5,148.5 C 403.812,154.424 406.146,160.424 408.5,166.5C 406.071,162.778 403.904,158.778 402,154.5C 401.505,152.527 401.338,150.527 401.5,148.5 Z"/></g>
<g><path style="opacity:0.014" fill="#e9e9e9" d="M 426.5,150.5 C 428.104,151.287 428.771,152.62 428.5,154.5C 426.896,153.713 426.229,152.38 426.5,150.5 Z"/></g>
<g><path style="opacity:0.184" fill="#cbcbcb" d="M 514.5,125.5 C 515.656,133.323 515.823,141.323 515,149.5C 514.478,152.281 513.311,154.615 511.5,156.5C 513.916,148.012 514.916,139.345 514.5,130.5C 514.5,128.833 514.5,127.167 514.5,125.5 Z"/></g>
<g><path style="opacity:0.216" fill="#c6c6c6" d="M 135.5,152.5 C 136.906,152.973 137.573,153.973 137.5,155.5C 136.094,155.027 135.427,154.027 135.5,152.5 Z"/></g>
<g><path style="opacity:0.118" fill="#dedede" d="M 266.5,150.5 C 268.587,151.585 269.92,153.251 270.5,155.5C 268.413,154.415 267.08,152.749 266.5,150.5 Z"/></g>
<g><path style="opacity:0.216" fill="#c9c9c9" d="M 488.5,152.5 C 488.573,154.027 487.906,155.027 486.5,155.5C 486.427,153.973 487.094,152.973 488.5,152.5 Z"/></g>
<g><path style="opacity:0.529" fill="#b5b5b5" d="M 270.5,155.5 C 272.833,157.167 274.833,159.167 276.5,161.5C 273.5,160.5 271.5,158.5 270.5,155.5 Z"/></g>
<g><path style="opacity:0.318" fill="#c6c6c6" d="M 137.5,155.5 C 138.906,155.973 139.573,156.973 139.5,158.5C 138.094,158.027 137.427,157.027 137.5,155.5 Z"/></g>
<g><path style="opacity:0.51" fill="#acacac" d="M 429.5,156.5 C 431.587,157.585 432.92,159.251 433.5,161.5C 431.413,160.415 430.08,158.749 429.5,156.5 Z"/></g>
<g><path style="opacity:0.325" fill="#c6c6c6" d="M 486.5,155.5 C 486.573,157.027 485.906,158.027 484.5,158.5C 484.427,156.973 485.094,155.973 486.5,155.5 Z"/></g>
<g><path style="opacity:0.663" fill="#959595" d="M 139.5,158.5 C 141.5,159.833 143.167,161.5 144.5,163.5C 141.833,162.833 140.167,161.167 139.5,158.5 Z"/></g>
<g><path style="opacity:0.431" fill="#bbbbbb" d="M 195.5,154.5 C 194.99,157.674 193.323,160.008 190.5,161.5C 191.786,158.883 193.453,156.55 195.5,154.5 Z"/></g>
<g><path style="opacity:0.161" fill="#cccccc" d="M 238.5,146.5 C 241.341,150.849 243.674,155.516 245.5,160.5C 241.6,156.699 239.266,152.033 238.5,146.5 Z"/></g>
<g><path style="opacity:0.616" fill="#b1b1b1" d="M 357.5,150.5 C 355.558,155.441 352.225,159.108 347.5,161.5C 350.862,157.808 354.195,154.141 357.5,150.5 Z"/></g>
<g><path style="opacity:0.008" fill="#dbdbdb" d="M 511.5,156.5 C 511.691,160.288 510.358,163.288 507.5,165.5C 508.597,162.314 509.93,159.314 511.5,156.5 Z"/></g>
<g><path style="opacity:0.008" fill="#e3e3e3" d="M 276.5,161.5 C 278.404,161.738 279.738,162.738 280.5,164.5C 278.596,164.262 277.262,163.262 276.5,161.5 Z"/></g>
<g><path style="opacity:0.075" fill="#c7c7c7" d="M 433.5,161.5 C 435.404,161.738 436.738,162.738 437.5,164.5C 435.596,164.262 434.262,163.262 433.5,161.5 Z"/></g>
<g><path style="opacity:0.467" fill="#a7a7a7" d="M 190.5,161.5 C 189.738,163.262 188.404,164.262 186.5,164.5C 187.262,162.738 188.596,161.738 190.5,161.5 Z"/></g>
<g><path style="opacity:0.239" fill="#cecece" d="M 347.5,161.5 C 346.008,164.323 343.674,165.99 340.5,166.5C 342.55,164.453 344.883,162.786 347.5,161.5 Z"/></g>
<g><path style="opacity:0.176" fill="#d2d2d2" d="M 219.5,157.5 C 219.611,158.117 219.944,158.617 220.5,159C 219.101,161.74 217.434,164.24 215.5,166.5C 216.463,163.256 217.796,160.256 219.5,157.5 Z"/></g>
<g><path style="opacity:0.004" fill="#e0e0e0" d="M 378.5,160.5 C 377.149,164.542 374.815,167.875 371.5,170.5C 373.344,166.808 375.677,163.475 378.5,160.5 Z"/></g>
<g><path style="opacity:0.012" fill="#e1e1e1" d="M 144.5,163.5 C 147.198,163.845 149.198,165.178 150.5,167.5C 148.147,166.66 146.147,165.326 144.5,163.5 Z"/></g>
<g><path style="opacity:0.039" fill="#e0e0e0" d="M 186.5,164.5 C 185.341,166.25 183.674,167.25 181.5,167.5C 182.401,165.273 184.067,164.273 186.5,164.5 Z"/></g>
<g><path style="opacity:0.051" fill="#e5e5e5" d="M 280.5,164.5 C 282.027,164.427 283.027,165.094 283.5,166.5C 281.973,166.573 280.973,165.906 280.5,164.5 Z"/></g>
<g><path style="opacity:0.212" fill="#dfdfdf" d="M 437.5,164.5 C 439.933,164.273 441.599,165.273 442.5,167.5C 440.326,167.25 438.659,166.25 437.5,164.5 Z"/></g>
<g><path style="opacity:0.004" fill="#d9d9d9" d="M 245.5,160.5 C 248.802,164.809 252.136,169.143 255.5,173.5C 250.691,170.351 247.357,166.017 245.5,160.5 Z"/></g>
<g><path style="opacity:0.027" fill="#dddddd" d="M 215.5,166.5 C 215.573,168.027 214.906,169.027 213.5,169.5C 213.427,167.973 214.094,166.973 215.5,166.5 Z"/></g>
<g><path style="opacity:0.027" fill="#dcdcdc" d="M 408.5,166.5 C 409.906,166.973 410.573,167.973 410.5,169.5C 409.094,169.027 408.427,168.027 408.5,166.5 Z"/></g>
<g><path style="opacity:0.149" fill="#d0d0d0" d="M 150.5,167.5 C 155.728,168.389 160.728,169.722 165.5,171.5C 159.974,171.763 154.974,170.43 150.5,167.5 Z"/></g>
<g><path style="opacity:0.035" fill="#d9d9d9" d="M 181.5,167.5 C 177.065,170.527 172.065,171.861 166.5,171.5C 171.272,169.722 176.272,168.389 181.5,167.5 Z"/></g>
<g><path style="opacity:0.149" fill="#d9d9d9" d="M 285.5,167.5 C 288.721,167.896 291.388,169.229 293.5,171.5C 290.246,171.206 287.579,169.873 285.5,167.5 Z"/></g>
<g><path style="opacity:0.029" fill="#e1e1e1" d="M 117.5,167.5 C 119.878,169.878 121.878,172.545 123.5,175.5C 120.353,173.687 118.353,171.02 117.5,167.5 Z"/></g>
<g><path style="opacity:0.027" fill="#dddddd" d="M 484.5,158.5 C 478.11,167.029 469.443,171.362 458.5,171.5C 463.834,169.991 469.168,168.157 474.5,166C 477.71,163.283 481.044,160.783 484.5,158.5 Z"/></g>
<g><path style="opacity:0.024" fill="#dcdcdc" d="M 213.5,169.5 C 213.262,171.404 212.262,172.738 210.5,173.5C 210.738,171.596 211.738,170.262 213.5,169.5 Z"/></g>
<g><path style="opacity:0.024" fill="#d5d5d5" d="M 410.5,169.5 C 412.262,170.262 413.262,171.596 413.5,173.5C 411.738,172.738 410.738,171.404 410.5,169.5 Z"/></g>
<g><path style="opacity:0.102" fill="#cccccc" d="M 442.5,167.5 C 447.728,168.389 452.728,169.722 457.5,171.5C 451.86,172.17 446.86,170.836 442.5,167.5 Z"/></g>
<g><path style="opacity:0.02" fill="#dfdfdf" d="M 506.5,167.5 C 504.912,171.749 502.245,175.082 498.5,177.5C 500.817,173.854 503.484,170.52 506.5,167.5 Z"/></g>
<g><path style="opacity:0.008" fill="#f4f4f4" d="M 371.5,170.5 C 371.5,172.5 370.5,173.5 368.5,173.5C 369.167,172.167 370.167,171.167 371.5,170.5 Z"/></g>
<g><path style="opacity:0.529" fill="#a2a2a2" d="M 255.5,173.5 C 257.71,173.894 259.043,175.227 259.5,177.5C 257.736,176.674 256.402,175.341 255.5,173.5 Z"/></g>
<g><path style="opacity:0.01" fill="#cccccc" d="M 340.5,166.5 C 330.052,173.806 318.385,176.639 305.5,175C 302.203,174.796 299.203,173.963 296.5,172.5C 311.886,175.286 326.553,173.286 340.5,166.5 Z"/></g>
<g><path style="opacity:0.024" fill="#cccccc" d="M 413.5,173.5 C 415.264,174.326 416.598,175.659 417.5,177.5C 415.29,177.106 413.957,175.773 413.5,173.5 Z"/></g>
<g><path style="opacity:0.008" fill="#f7f7f7" d="M 123.5,175.5 C 124.5,175.833 125.167,176.5 125.5,177.5C 124.167,177.5 123.5,176.833 123.5,175.5 Z"/></g>
<g><path style="opacity:0.012" fill="#e9e9e9" d="M 209.5,174.5 C 209.5,176.5 208.5,177.5 206.5,177.5C 207.167,176.167 208.167,175.167 209.5,174.5 Z"/></g>
<g><path style="opacity:0.012" fill="#f0f0f0" d="M 366.5,175.5 C 366.5,176.833 365.833,177.5 364.5,177.5C 364.833,176.5 365.5,175.833 366.5,175.5 Z"/></g>
<g><path style="opacity:0.998" fill="#595959" d="M 206.5,177.5 C 205.89,178.391 205.557,179.391 205.5,180.5C 201.257,178.23 201.59,177.23 206.5,177.5 Z"/></g>
<g><path style="opacity:0.42" fill="#bababa" d="M 259.5,177.5 C 261.749,178.08 263.415,179.413 264.5,181.5C 262.251,180.92 260.585,179.587 259.5,177.5 Z"/></g>
<g><path style="opacity:0.047" fill="#c7c7c7" d="M 125.5,177.5 C 128.682,178.14 129.015,179.14 126.5,180.5C 126.443,179.391 126.11,178.391 125.5,177.5 Z"/></g>
<g><path style="opacity:0.133" fill="#ababab" d="M 417.5,177.5 C 418.922,177.75 419.922,178.583 420.5,180C 419.906,180.464 419.239,180.631 418.5,180.5C 418.443,179.391 418.11,178.391 417.5,177.5 Z"/></g>
<g><path style="opacity:0.059" fill="#dddddd" d="M 497.5,178.5 C 497.5,179.167 497.5,179.833 497.5,180.5C 494.833,179.833 494.833,179.167 497.5,178.5 Z"/></g>
<g><path style="opacity:0.059" fill="#dcdcdc" d="M 362.5,178.5 C 362.5,180.5 361.5,181.5 359.5,181.5C 360.167,180.167 361.167,179.167 362.5,178.5 Z"/></g>
<g><path style="opacity:0.545" fill="#adadad" d="M 124.5,181.5 C 124.027,182.906 123.027,183.573 121.5,183.5C 121.973,182.094 122.973,181.427 124.5,181.5 Z"/></g>
<g><path style="opacity:0.02" fill="#e8e8e8" d="M 264.5,181.5 C 265.289,181.783 265.956,182.283 266.5,183C 265.09,184.372 263.423,185.205 261.5,185.5C 262.789,184.363 263.789,183.03 264.5,181.5 Z"/></g>
<g><path style="opacity:0.016" fill="#dddddd" d="M 359.5,181.5 C 359.771,183.43 360.771,184.764 362.5,185.5C 360.319,185.716 358.653,184.883 357.5,183C 358.044,182.283 358.711,181.783 359.5,181.5 Z"/></g>
<g><path style="opacity:0.231" fill="#d7d7d7" d="M 416.5,181.5 C 415.486,182.674 414.153,183.34 412.5,183.5C 413.287,181.896 414.62,181.229 416.5,181.5 Z"/></g>
<g><path style="opacity:0.106" fill="#c9c9c9" d="M 499.5,181.5 C 501.027,181.427 502.027,182.094 502.5,183.5C 500.973,183.573 499.973,182.906 499.5,181.5 Z"/></g>
<g><path style="opacity:0.02" fill="#cdcdcd" d="M 207.5,181.5 C 210.331,182.079 212.664,183.412 214.5,185.5C 211.669,184.921 209.336,183.588 207.5,181.5 Z"/></g>
<g><path style="opacity:0.09" fill="#d1d1d1" d="M 502.5,183.5 C 504.933,183.273 506.599,184.273 507.5,186.5C 505.566,185.89 503.899,184.89 502.5,183.5 Z"/></g>
<g><path style="opacity:0.404" fill="#c7c7c7" d="M 412.5,183.5 C 412.027,184.906 411.027,185.573 409.5,185.5C 409.973,184.094 410.973,183.427 412.5,183.5 Z"/></g>
<g><path style="opacity:0.122" fill="#cecece" d="M 261.5,185.5 C 259.151,187.341 256.485,188.674 253.5,189.5C 255.579,187.127 258.246,185.794 261.5,185.5 Z"/></g>
<g><path style="opacity:0.114" fill="#d0d0d0" d="M 362.5,185.5 C 365.754,185.794 368.421,187.127 370.5,189.5C 367.515,188.674 364.849,187.341 362.5,185.5 Z"/></g>
<g><path style="opacity:0.045" fill="#d0d0d0" d="M 121.5,183.5 C 118.68,185.745 115.68,187.745 112.5,189.5C 114.639,186.26 117.639,184.26 121.5,183.5 Z"/></g>
<g><path style="opacity:0.067" fill="#e4e4e4" d="M 214.5,185.5 C 217.674,186.01 220.008,187.677 221.5,190.5C 218.883,189.214 216.55,187.547 214.5,185.5 Z"/></g>
<g><path style="opacity:0.125" fill="#d8d8d8" d="M 409.5,185.5 C 406.48,188.516 403.146,191.183 399.5,193.5C 401.101,191.147 403.101,188.98 405.5,187C 406.745,186.209 408.078,185.709 409.5,185.5 Z"/></g>
<g><path style="opacity:0.039" fill="#e1e1e1" d="M 507.5,186.5 C 509.179,186.285 510.179,186.952 510.5,188.5C 508.973,188.573 507.973,187.906 507.5,186.5 Z"/></g>
<g><path style="opacity:0.082" fill="#c6c6c6" d="M 112.5,189.5 C 110.105,192.861 107.105,195.528 103.5,197.5C 103.511,195.983 104.177,194.816 105.5,194C 107.443,191.89 109.776,190.39 112.5,189.5 Z"/></g>
<g><path style="opacity:0.012" fill="#d4d4d4" d="M 221.5,190.5 C 226.5,193.5 230.5,197.5 233.5,202.5C 229.167,198.833 225.167,194.833 221.5,190.5 Z"/></g>
<g><path style="opacity:0.016" fill="#e2e2e2" d="M 370.5,189.5 C 373.614,189.555 375.948,190.888 377.5,193.5C 374.996,192.416 372.663,191.083 370.5,189.5 Z"/></g>
<g><path style="opacity:0.278" fill="#dddddd" d="M 253.5,189.5 C 251.337,191.083 249.004,192.416 246.5,193.5C 248.052,190.888 250.386,189.555 253.5,189.5 Z"/></g>
<g><path style="opacity:0.153" fill="#cccccc" d="M 510.5,188.5 C 512.826,189.145 514.493,190.478 515.5,192.5C 513.205,191.864 511.539,190.531 510.5,188.5 Z"/></g>
<g><path style="opacity:0.008" fill="#d6d6d6" d="M 515.5,192.5 C 518.189,193.189 519.856,194.856 520.5,197.5C 518.451,196.118 516.785,194.452 515.5,192.5 Z"/></g>
<g><path style="opacity:0.016" fill="#e1e1e1" d="M 377.5,193.5 C 380.267,193.87 382.267,195.204 383.5,197.5C 381.147,196.66 379.147,195.326 377.5,193.5 Z"/></g>
<g><path style="opacity:0.009" fill="#d1d1d1" d="M 471.5,195.5 C 462.5,195.5 453.5,195.5 444.5,195.5C 448.728,193.975 453.228,193.308 458,193.5C 462.772,193.308 467.272,193.975 471.5,195.5 Z"/></g>
<g><path style="opacity:0.022" fill="#cccccc" d="M 246.5,193.5 C 244.45,195.547 242.117,197.214 239.5,198.5C 240.904,195.623 243.237,193.956 246.5,193.5 Z"/></g>
<g><path style="opacity:0.592" fill="#adadad" d="M 471.5,195.5 C 476.079,195.47 480.079,196.804 483.5,199.5C 479.233,198.744 475.233,197.411 471.5,195.5 Z"/></g>
<g><path style="opacity:0.008" fill="#d4d4d4" d="M 444.5,195.5 C 439.795,197.735 434.795,199.402 429.5,200.5C 433.956,197.459 438.956,195.792 444.5,195.5 Z"/></g>
<g><path style="opacity:0.012" fill="#cecece" d="M 179.5,195.5 C 170.494,195.334 161.494,195.5 152.5,196C 147.905,197.801 143.239,199.301 138.5,200.5C 138.611,199.883 138.944,199.383 139.5,199C 152.605,193.307 165.938,192.14 179.5,195.5 Z"/></g>
<g><path style="opacity:0.298" fill="#c2c2c2" d="M 399.5,193.5 C 397.038,196.464 394.371,199.297 391.5,202C 390.251,202.74 389.251,202.573 388.5,201.5C 392.167,198.833 395.833,196.167 399.5,193.5 Z"/></g>
<g><path style="opacity:0.012" fill="#e9e9e9" d="M 520.5,197.5 C 522.833,197.833 524.167,199.167 524.5,201.5C 522.833,200.5 521.5,199.167 520.5,197.5 Z"/></g>
<g><path style="opacity:0.026" fill="#f0f0f0" d="M 183.5,196.5 C 186.542,196.733 189.208,197.733 191.5,199.5C 188.351,199.585 185.684,198.585 183.5,196.5 Z"/></g>
<g><path style="opacity:0.025" fill="#d7d7d7" d="M 330.5,199.5 C 316.126,198.071 301.793,198.404 287.5,200.5C 301.751,195.952 316.085,195.619 330.5,199.5 Z"/></g>
<g><path style="opacity:0.018" fill="#f5f5f5" d="M 385.5,198.5 C 387.5,198.5 388.5,199.5 388.5,201.5C 387.167,200.833 386.167,199.833 385.5,198.5 Z"/></g>
<g><path style="opacity:0.141" fill="#dfdfdf" d="M 239.5,198.5 C 238.055,200.063 236.389,201.396 234.5,202.5C 234.967,199.703 236.633,198.369 239.5,198.5 Z"/></g>
<g><path style="opacity:0.094" fill="#dddddd" d="M 138.5,200.5 C 136.97,202.346 134.97,203.346 132.5,203.5C 134.03,201.654 136.03,200.654 138.5,200.5 Z"/></g>
<g><path style="opacity:0.192" fill="#dcdcdc" d="M 194.5,200.5 C 196.674,200.75 198.341,201.75 199.5,203.5C 197.067,203.727 195.401,202.727 194.5,200.5 Z"/></g>
<g><path style="opacity:0.192" fill="#d1d1d1" d="M 429.5,200.5 C 428.089,202.539 426.089,203.539 423.5,203.5C 425.181,201.992 427.181,200.992 429.5,200.5 Z"/></g>
<g><path style="opacity:0.035" fill="#d2d2d2" d="M 287.5,200.5 C 284.619,202.68 281.286,203.68 277.5,203.5C 280.505,201.723 283.838,200.723 287.5,200.5 Z"/></g>
<g><path style="opacity:0.037" fill="#d6d6d6" d="M 336.5,200.5 C 339.854,200.747 342.854,201.747 345.5,203.5C 342.084,203.472 339.084,202.472 336.5,200.5 Z"/></g>
<g><path style="opacity:0.106" fill="#dfdfdf" d="M 487.5,201.5 C 489.153,201.66 490.486,202.326 491.5,203.5C 489.62,203.771 488.287,203.104 487.5,201.5 Z"/></g>
<g><path style="opacity:0.471" fill="#c3c3c3" d="M 103.5,197.5 C 101.528,201.105 98.8615,204.105 95.5,206.5C 96.7502,204.068 98.2502,201.734 100,199.5C 100.816,198.177 101.983,197.511 103.5,197.5 Z"/></g>
<g><path style="opacity:0.278" fill="#d3d3d3" d="M 277.5,203.5 C 274.524,206.426 270.858,208.092 266.5,208.5C 269.74,206.049 273.407,204.382 277.5,203.5 Z"/></g>
<g><path style="opacity:0.11" fill="#e4e4e4" d="M 422.5,204.5 C 419.61,207.625 416.277,210.292 412.5,212.5C 415.095,208.874 418.428,206.208 422.5,204.5 Z"/></g>
<g><path style="opacity:0.118" fill="#d1d1d1" d="M 524.5,201.5 C 526.587,202.585 527.92,204.251 528.5,206.5C 526.413,205.415 525.08,203.749 524.5,201.5 Z"/></g>
<g><path style="opacity:0.041" fill="#e1e1e1" d="M 130.5,204.5 C 129.871,206.997 128.204,208.33 125.5,208.5C 126.579,206.457 128.246,205.124 130.5,204.5 Z"/></g>
<g><path style="opacity:0.031" fill="#e4e4e4" d="M 346.5,203.5 C 350.354,204.93 354.021,206.597 357.5,208.5C 353.148,208.154 349.481,206.488 346.5,203.5 Z"/></g>
<g><path style="opacity:0.041" fill="#e1e1e1" d="M 493.5,204.5 C 495.754,205.124 497.421,206.457 498.5,208.5C 495.796,208.33 494.129,206.997 493.5,204.5 Z"/></g>
<g><path style="opacity:0.106" fill="#e3e3e3" d="M 200.5,203.5 C 205.279,205.891 209.279,209.224 212.5,213.5C 209.006,210.856 205.34,208.356 201.5,206C 200.748,205.329 200.414,204.496 200.5,203.5 Z"/></g>
<g><path style="opacity:0.318" fill="#d3d3d3" d="M 95.5,206.5 C 93.0809,211.009 90.4143,215.342 87.5,219.5C 88.8985,214.366 91.5652,210.033 95.5,206.5 Z"/></g>
<g><path style="opacity:0.259" fill="#d0d0d0" d="M 266.5,208.5 C 264.66,210.669 262.326,212.002 259.5,212.5C 261.336,210.412 263.669,209.079 266.5,208.5 Z"/></g>
<g><path style="opacity:0.259" fill="#d5d5d5" d="M 357.5,208.5 C 360.331,209.079 362.664,210.412 364.5,212.5C 361.674,212.002 359.34,210.669 357.5,208.5 Z"/></g>
<g><path style="opacity:0.129" fill="#d8d8d8" d="M 528.5,206.5 C 531.277,208.951 533.277,211.951 534.5,215.5C 531.759,213.025 529.759,210.025 528.5,206.5 Z"/></g>
<g><path style="opacity:0.027" fill="#dedede" d="M 125.5,208.5 C 123.242,211.425 120.575,214.091 117.5,216.5C 119.145,212.855 121.812,210.188 125.5,208.5 Z"/></g>
<g><path style="opacity:0.02" fill="#dadada" d="M 259.5,212.5 C 258.198,214.822 256.198,216.155 253.5,216.5C 255.147,214.674 257.147,213.34 259.5,212.5 Z"/></g>
<g><path style="opacity:0.278" fill="#c9c9c9" d="M 364.5,212.5 C 366.404,212.738 367.738,213.738 368.5,215.5C 366.596,215.262 365.262,214.262 364.5,212.5 Z"/></g>
<g><path style="opacity:0.024" fill="#c3c3c3" d="M 212.5,213.5 C 214.144,213.81 215.144,214.81 215.5,216.5C 213.856,216.19 212.856,215.19 212.5,213.5 Z"/></g>
<g><path style="opacity:0.024" fill="#e1e1e1" d="M 410.5,214.5 C 410.5,215.833 409.833,216.5 408.5,216.5C 408.833,215.5 409.5,214.833 410.5,214.5 Z"/></g>
<g><path style="opacity:0.012" fill="#d5d5d5" d="M 215.5,216.5 C 217.519,217.538 217.853,218.872 216.5,220.5C 216.167,219.167 215.833,217.833 215.5,216.5 Z"/></g>
<g><path style="opacity:0.012" fill="#d4d4d4" d="M 408.5,216.5 C 408.167,217.833 407.833,219.167 407.5,220.5C 406.147,218.872 406.481,217.538 408.5,216.5 Z"/></g>
<g><path style="opacity:0.11" fill="#e4e4e4" d="M 534.5,215.5 C 536.104,216.287 536.771,217.62 536.5,219.5C 535.326,218.486 534.66,217.153 534.5,215.5 Z"/></g>
<g><path style="opacity:0.047" fill="#dfdfdf" d="M 116.5,217.5 C 114.656,221.192 112.323,224.525 109.5,227.5C 110.851,223.458 113.185,220.125 116.5,217.5 Z"/></g>
<g><path style="opacity:0.255" fill="#d8d8d8" d="M 370.5,216.5 C 373.427,217.757 375.761,219.757 377.5,222.5C 374.573,221.243 372.239,219.243 370.5,216.5 Z"/></g>
<g><path style="opacity:0.004" fill="#ececec" d="M 252.5,217.5 C 251.415,219.587 249.749,220.92 247.5,221.5C 248.585,219.413 250.251,218.08 252.5,217.5 Z"/></g>
<g><path style="opacity:0.2" fill="#d5d5d5" d="M 216.5,220.5 C 215.974,222.23 214.974,223.564 213.5,224.5C 213.088,222.027 214.088,220.694 216.5,220.5 Z"/></g>
<g><path style="opacity:0.027" fill="#eaeaea" d="M 407.5,220.5 C 409.912,220.694 410.912,222.027 410.5,224.5C 409.512,223.205 408.512,221.872 407.5,220.5 Z"/></g>
<g><path style="opacity:0.082" fill="#cdcdcd" d="M 87.5,219.5 C 87.7709,221.38 87.1042,222.713 85.5,223.5C 85.6596,221.847 86.3263,220.514 87.5,219.5 Z"/></g>
<g><path style="opacity:0.012" fill="#dadada" d="M 498.5,208.5 C 505.474,213.447 510.808,219.781 514.5,227.5C 509.386,220.91 504.053,214.577 498.5,208.5 Z"/></g>
<g><path style="opacity:0.118" fill="#c8c8c8" d="M 537.5,221.5 C 539.915,224.34 541.248,227.673 541.5,231.5C 539.62,228.403 538.287,225.07 537.5,221.5 Z"/></g>
<g><path style="opacity:0.014" fill="#e9e9e9" d="M 85.5,223.5 C 85.0198,226.443 84.0198,229.11 82.5,231.5C 82.4152,228.351 83.4152,225.684 85.5,223.5 Z"/></g>
<g><path style="opacity:0.047" fill="#dfdfdf" d="M 246.5,222.5 C 243.119,226.548 239.452,230.215 235.5,233.5C 238.188,228.812 241.855,225.145 246.5,222.5 Z"/></g>
<g><path style="opacity:0.039" fill="#d3d3d3" d="M 109.5,227.5 C 107.754,232.649 105.754,237.649 103.5,242.5C 104.149,236.882 106.149,231.882 109.5,227.5 Z"/></g>
<g><path style="opacity:0.118" fill="#bfbfbf" d="M 213.5,224.5 C 212.214,227.117 210.547,229.45 208.5,231.5C 209.01,228.326 210.677,225.992 213.5,224.5 Z"/></g>
<g><path style="opacity:0.114" fill="#c4c4c4" d="M 410.5,224.5 C 412.587,225.585 413.92,227.251 414.5,229.5C 412.413,228.415 411.08,226.749 410.5,224.5 Z"/></g>
<g><path style="opacity:0.043" fill="#c8c8c8" d="M 514.5,227.5 C 516.786,230.463 518.619,233.796 520,237.5C 522.226,247.124 524.06,256.79 525.5,266.5C 524.21,265.942 523.377,264.942 523,263.5C 522.346,250.889 519.513,238.889 514.5,227.5 Z"/></g>
<g><path style="opacity:0.027" fill="#d4d4d4" d="M 377.5,222.5 C 382.145,225.145 385.812,228.812 388.5,233.5C 384.548,230.215 380.881,226.548 377.5,222.5 Z"/></g>
<g><path style="opacity:0.012" fill="#dddddd" d="M 416.5,233.5 C 418.741,234.3 419.741,235.966 419.5,238.5C 418.263,237.035 417.263,235.368 416.5,233.5 Z"/></g>
<g><path style="opacity:0.008" fill="#dcdcdc" d="M 388.5,233.5 C 390.262,234.262 391.262,235.596 391.5,237.5C 389.738,236.738 388.738,235.404 388.5,233.5 Z"/></g>
<g><path style="opacity:0.024" fill="#e1e1e1" d="M 235.5,233.5 C 235.262,235.404 234.262,236.738 232.5,237.5C 232.738,235.596 233.738,234.262 235.5,233.5 Z"/></g>
<g><path style="opacity:0.067" fill="#d7d7d7" d="M 208.5,231.5 C 207.416,234.004 206.083,236.337 204.5,238.5C 204.555,235.386 205.888,233.052 208.5,231.5 Z"/></g>
<g><path style="opacity:0.039" fill="#bababa" d="M 391.5,237.5 C 393.446,238.035 394.446,239.368 394.5,241.5C 393.026,240.564 392.026,239.23 391.5,237.5 Z"/></g>
<g><path style="opacity:0.01" fill="#eaeaea" d="M 82.5,231.5 C 79.8628,241.63 78.5295,251.963 78.5,262.5C 77.2305,253.904 77.7305,245.238 80,236.5C 80.7568,234.685 81.5902,233.019 82.5,231.5 Z"/></g>
<g><path style="opacity:0.008" fill="#dedede" d="M 231.5,238.5 C 231.155,241.198 229.822,243.198 227.5,244.5C 228.34,242.147 229.674,240.147 231.5,238.5 Z"/></g>
<g><path style="opacity:0.016" fill="#d4d4d4" d="M 394.5,241.5 C 395.906,241.973 396.573,242.973 396.5,244.5C 395.094,244.027 394.427,243.027 394.5,241.5 Z"/></g>
<g><path style="opacity:0.141" fill="#c6c6c6" d="M 204.5,238.5 C 203.674,241.485 202.341,244.151 200.5,246.5C 200.794,243.246 202.127,240.579 204.5,238.5 Z"/></g>
<g><path style="opacity:0.145" fill="#cecece" d="M 419.5,238.5 C 421.873,240.579 423.206,243.246 423.5,246.5C 421.659,244.151 420.326,241.485 419.5,238.5 Z"/></g>
<g><path style="opacity:0.141" fill="#dadada" d="M 541.5,232.5 C 544.221,237.368 545.721,242.702 546,248.5C 546.815,253.352 546.648,258.019 545.5,262.5C 545.566,252.296 544.233,242.296 541.5,232.5 Z"/></g>
<g><path style="opacity:0.122" fill="#d8d8d8" d="M 397.5,246.5 C 399.25,247.659 400.25,249.326 400.5,251.5C 398.75,250.341 397.75,248.674 397.5,246.5 Z"/></g>
<g><path style="opacity:0.906" fill="#5f5f5f" d="M 200.5,246.5 C 200.741,248.898 200.074,250.898 198.5,252.5C 198.5,251.833 198.5,251.167 198.5,250.5C 198.66,248.847 199.326,247.514 200.5,246.5 Z"/></g>
<g><path style="opacity:0.027" fill="#d7d7d7" d="M 227.5,244.5 C 226.921,247.331 225.588,249.664 223.5,251.5C 224.079,248.669 225.412,246.336 227.5,244.5 Z"/></g>
<g><path style="opacity:0.012" fill="#eaeaea" d="M 424.5,248.5 C 427.181,251.192 428.514,254.525 428.5,258.5C 426.979,255.277 425.646,251.943 424.5,248.5 Z"/></g>
<g><path style="opacity:0.014" fill="#e9e9e9" d="M 198.5,250.5 C 198.5,251.167 198.5,251.833 198.5,252.5C 197.486,254.574 196.486,256.574 195.5,258.5C 195.415,255.351 196.415,252.684 198.5,250.5 Z"/></g>
<g><path style="opacity:0.362" fill="#b6b6b6" d="M 103.5,242.5 C 102.511,249.465 101.677,256.465 101,263.5C 100.722,264.416 100.222,265.082 99.5,265.5C 99.8542,257.527 101.188,249.861 103.5,242.5 Z"/></g>
<g><path style="opacity:0.231" fill="#cecece" d="M 78.5,262.5 C 80.4707,264.808 82.4707,267.142 84.5,269.5C 81.0922,268.422 79.0922,266.089 78.5,262.5 Z"/></g>
<g><path style="opacity:0.022" fill="#e1e1e1" d="M 195.5,258.5 C 194.674,264.091 193.34,269.425 191.5,274.5C 191.438,268.71 192.771,263.376 195.5,258.5 Z"/></g>
<g><path style="opacity:0.671" fill="#888888" d="M 525.5,266.5 C 527.027,266.427 528.027,267.094 528.5,268.5C 526.973,268.573 525.973,267.906 525.5,266.5 Z"/></g>
<g><path style="opacity:0.427" fill="#c6c6c6" d="M 428.5,258.5 C 431.024,263.089 432.358,268.089 432.5,273.5C 430.386,268.806 429.053,263.806 428.5,258.5 Z"/></g>
<g><path style="opacity:0.298" fill="#c1c1c1" d="M 95.5,268.5 C 94.5263,270.085 93.0263,271.085 91,271.5C 88.9267,271.262 86.76,270.596 84.5,269.5C 88.2693,269.756 91.9359,269.423 95.5,268.5 Z"/></g>
<g><path style="opacity:0.18" fill="#c4c4c4" d="M 545.5,262.5 C 543.914,268.226 540.081,271.226 534,271.5C 531.704,271.141 529.871,270.141 528.5,268.5C 535.93,271.211 541.596,269.211 545.5,262.5 Z"/></g>
<g><path style="opacity:0.224" fill="#c8c8c8" d="M 400.5,251.5 C 402.226,253.942 403.726,256.609 405,259.5C 409.89,273.06 412.557,287.06 413,301.5C 413.997,303.323 415.164,304.99 416.5,306.5C 413.548,305.641 411.715,303.641 411,300.5C 410.658,291.095 409.658,281.762 408,272.5C 405.778,265.329 403.278,258.329 400.5,251.5 Z"/></g>
<g><path style="opacity:0.337" fill="#bababa" d="M 191.5,274.5 C 190.374,284.198 190.374,293.865 191.5,303.5C 189.761,301.625 188.761,299.292 188.5,296.5C 189.097,288.973 190.097,281.64 191.5,274.5 Z"/></g>
<g><path style="opacity:0.328" fill="#bebebe" d="M 432.5,275.5 C 433.98,282.458 434.98,289.625 435.5,297C 435.343,299.675 434.343,301.841 432.5,303.5C 433.661,294.197 433.661,284.863 432.5,275.5 Z"/></g>
<g><path style="opacity:0.162" fill="#dcdcdc" d="M 223.5,251.5 C 216.749,267.087 213.249,283.42 213,300.5C 212.502,302.544 211.335,303.878 209.5,304.5C 211.717,293.64 213.55,282.64 215,271.5C 216.787,264.282 219.62,257.616 223.5,251.5 Z"/></g>
<g><path style="opacity:0.012" fill="#efefef" d="M 191.5,303.5 C 192.833,304.167 193.833,305.167 194.5,306.5C 192.5,306.5 191.5,305.5 191.5,303.5 Z"/></g>
<g><path style="opacity:0.016" fill="#eaeaea" d="M 209.5,304.5 C 209.5,305.833 208.833,306.5 207.5,306.5C 207.833,305.5 208.5,304.833 209.5,304.5 Z"/></g>
<g><path style="opacity:0.337" fill="#b2b2b2" d="M 194.5,306.5 C 198.845,307.726 203.178,307.726 207.5,306.5C 205.71,307.997 203.544,308.664 201,308.5C 198.456,308.664 196.29,307.997 194.5,306.5 Z"/></g>
<g><path style="opacity:0.335" fill="#b8b8b8" d="M 432.5,303.5 C 431.781,305.888 430.115,307.388 427.5,308C 424.5,308.667 421.5,308.667 418.5,308C 417.584,307.722 416.918,307.222 416.5,306.5C 422.45,308.509 427.783,307.509 432.5,303.5 Z"/></g>
</svg>
